<?xml version="1.0" encoding="UTF-8" standalone="no"?>
<!-- Created with Inkscape (http://www.inkscape.org/) -->

<svg
   xmlns:dc="http://purl.org/dc/elements/1.1/"
   xmlns:cc="http://creativecommons.org/ns#"
   xmlns:rdf="http://www.w3.org/1999/02/22-rdf-syntax-ns#"
   xmlns:svg="http://www.w3.org/2000/svg"
   xmlns="http://www.w3.org/2000/svg"
   xmlns:xlink="http://www.w3.org/1999/xlink"
   xmlns:sodipodi="http://sodipodi.sourceforge.net/DTD/sodipodi-0.dtd"
   xmlns:inkscape="http://www.inkscape.org/namespaces/inkscape"
   width="180.85715"
   height="136.19876"
   id="svg4415"
   version="1.1"
   inkscape:version="0.48.3.1 r9886"
   sodipodi:docname="logo-sebrae.svg">
  <defs
     id="defs4417">
    <radialGradient
       id="radialGradient63339"
       spreadMethod="pad"
       gradientTransform="matrix(8.255204,0,0,-6.822745,80.43336,48.076993)"
       gradientUnits="userSpaceOnUse"
       r="1"
       cy="0"
       cx="0"
       fy="0"
       fx="0">
      <stop
         id="stop63341"
         offset="0"
         style="stop-opacity:1;stop-color:#b7e8f6" />
      <stop
         id="stop63343"
         offset="0.131909"
         style="stop-opacity:1;stop-color:#56c8e0" />
      <stop
         id="stop63345"
         offset="0.269815"
         style="stop-opacity:1;stop-color:#1bb2dd" />
      <stop
         id="stop63347"
         offset="0.716039"
         style="stop-opacity:1;stop-color:#1699da" />
      <stop
         id="stop63349"
         offset="1"
         style="stop-opacity:1;stop-color:#1a7ea1" />
    </radialGradient>
    <radialGradient
       r="1"
       fy="0"
       fx="0"
       cy="0"
       cx="0"
       spreadMethod="pad"
       gradientTransform="matrix(8.255204,0,0,-6.822745,80.43336,48.076993)"
       gradientUnits="userSpaceOnUse"
       id="radialGradient5894"
       xlink:href="#radialGradient63339"
       inkscape:collect="always" />
    <linearGradient
       id="linearGradient63329"
       spreadMethod="pad"
       gradientTransform="matrix(5.230312,0,0,-5.230312,80.68491,48.105538)"
       gradientUnits="userSpaceOnUse"
       y2="0"
       x2="1"
       y1="0"
       x1="0">
      <stop
         id="stop63331"
         offset="0"
         style="stop-opacity:1;stop-color:#a2a09d" />
      <stop
         id="stop63333"
         offset="1"
         style="stop-opacity:1;stop-color:#ffffff" />
    </linearGradient>
    <linearGradient
       y2="0"
       x2="1"
       y1="0"
       x1="0"
       spreadMethod="pad"
       gradientTransform="matrix(5.230312,0,0,-5.230312,80.68491,48.105538)"
       gradientUnits="userSpaceOnUse"
       id="linearGradient5892"
       xlink:href="#linearGradient63329"
       inkscape:collect="always" />
    <linearGradient
       inkscape:collect="always"
       xlink:href="#linearGradient63329"
       id="linearGradient3116"
       gradientUnits="userSpaceOnUse"
       gradientTransform="matrix(5.230312,0,0,-5.230312,80.68491,48.105538)"
       spreadMethod="pad"
       x1="0"
       y1="0"
       x2="1"
       y2="0" />
    <radialGradient
       inkscape:collect="always"
       xlink:href="#radialGradient63339"
       id="radialGradient3118"
       gradientUnits="userSpaceOnUse"
       gradientTransform="matrix(8.255204,0,0,-6.822745,80.43336,48.076993)"
       spreadMethod="pad"
       cx="0"
       cy="0"
       fx="0"
       fy="0"
       r="1" />
  </defs>
  <sodipodi:namedview
     id="base"
     pagecolor="#ffffff"
     bordercolor="#666666"
     borderopacity="1.0"
     inkscape:pageopacity="0.0"
     inkscape:pageshadow="2"
     inkscape:zoom="1.4"
     inkscape:cx="-20.423015"
     inkscape:cy="18.539685"
     inkscape:document-units="px"
     inkscape:current-layer="layer1"
     showgrid="false"
     fit-margin-top="0"
     fit-margin-left="0"
     fit-margin-right="0"
     fit-margin-bottom="0"
     inkscape:window-width="1125"
     inkscape:window-height="650"
     inkscape:window-x="0"
     inkscape:window-y="24"
     inkscape:window-maximized="0" />
  <metadata
     id="metadata4420">
    <rdf:RDF>
      <cc:Work
         rdf:about="">
        <dc:format>image/svg+xml</dc:format>
        <dc:type
           rdf:resource="http://purl.org/dc/dcmitype/StillImage" />
        <dc:title></dc:title>
      </cc:Work>
    </rdf:RDF>
  </metadata>
  <g
     inkscape:label="Camada 1"
     inkscape:groupmode="layer"
     id="layer1"
     transform="translate(-768.4985,-161.80319)">
    <g
       id="g3101">
      <g
         transform="matrix(3.1113877,0,0,-3.1059802,537.19323,468.37275)"
         id="g64170">
        <path
           inkscape:connector-curvature="0"
           id="path62942"
           style="fill:#3564b8;fill-opacity:1;fill-rule:evenodd;stroke:none"
           d="m 74.711,82.867 2.676,0 c -0.039,-0.18 -0.055,-0.324 -0.055,-0.441 0,-0.699 0.453,-1.051 1.356,-1.051 0.953,0 1.507,0.363 1.664,1.09 0.019,0.09 0.027,0.176 0.027,0.254 0,0.328 -0.223,0.554 -0.664,0.679 l -2.223,0.614 c -1.262,0.343 -1.89,1.015 -1.89,2.007 0,0.196 0.023,0.407 0.066,0.629 0.187,0.852 0.652,1.547 1.398,2.09 0.84,0.61 1.938,0.918 3.286,0.918 2.253,0 3.382,-0.73 3.382,-2.183 0,-0.243 -0.035,-0.536 -0.105,-0.879 l -2.703,0 c 0.043,0.175 0.066,0.328 0.066,0.453 0,0.586 -0.347,0.875 -1.039,0.875 -0.383,0 -0.707,-0.094 -0.984,-0.285 -0.274,-0.188 -0.442,-0.43 -0.492,-0.723 -0.016,-0.082 -0.028,-0.156 -0.028,-0.227 0,-0.363 0.262,-0.617 0.785,-0.761 l 1.692,-0.465 c 0.738,-0.203 1.25,-0.406 1.543,-0.613 0.5,-0.336 0.746,-0.825 0.746,-1.465 0,-0.211 -0.027,-0.442 -0.078,-0.692 -0.215,-1.027 -0.785,-1.812 -1.719,-2.355 -0.852,-0.496 -1.91,-0.746 -3.18,-0.746 -1.644,0 -2.726,0.383 -3.25,1.144 -0.25,0.356 -0.371,0.793 -0.371,1.305 0,0.215 0.031,0.488 0.094,0.828 m 9.316,-3.062 2.035,9.582 7.215,0 -0.382,-1.836 -4.583,0 -0.425,-1.996 4.316,0 -0.402,-1.836 -4.313,0 -0.426,-2.051 4.688,0 -0.402,-1.863 -7.321,0 z m 8.774,0 2.035,9.609 3.848,0 c 0.816,0 1.406,-0.031 1.769,-0.094 0.613,-0.113 1.078,-0.343 1.399,-0.691 0.293,-0.317 0.441,-0.707 0.441,-1.156 0,-0.161 -0.02,-0.325 -0.055,-0.493 C 102,85.871 101.16,85.141 99.723,84.797 l -0.012,-0.028 c 1.25,-0.23 1.875,-0.824 1.875,-1.785 0,-0.601 -0.168,-1.152 -0.504,-1.644 -0.34,-0.492 -0.789,-0.871 -1.352,-1.137 -0.566,-0.266 -1.46,-0.398 -2.683,-0.398 l -4.246,0 z m 4.258,7.867 -0.454,-2.129 1.254,0 c 0.469,0 0.789,0.039 0.957,0.117 0.375,0.188 0.606,0.496 0.692,0.934 0.082,0.371 0.019,0.656 -0.184,0.851 -0.16,0.149 -0.433,0.227 -0.812,0.227 l -1.453,0 z m -0.809,-3.836 -0.48,-2.274 1.476,0 c 0.914,0 1.449,0.372 1.609,1.118 0.028,0.113 0.043,0.222 0.043,0.32 0,0.559 -0.418,0.836 -1.253,0.836 l -1.395,0 z m 6.215,-4.031 2.035,9.609 4.445,0 c 0.766,0 1.27,-0.016 1.52,-0.051 0.601,-0.09 1.035,-0.301 1.293,-0.64 0.238,-0.301 0.359,-0.68 0.359,-1.133 0,-0.231 -0.027,-0.473 -0.082,-0.731 -0.176,-0.824 -0.597,-1.418 -1.265,-1.785 -0.434,-0.238 -0.958,-0.402 -1.571,-0.492 l -0.011,-0.051 c 0.691,-0.019 1.16,-0.156 1.41,-0.414 0.214,-0.215 0.32,-0.574 0.32,-1.078 0,-0.168 -0.016,-0.457 -0.039,-0.867 -0.082,-1.188 -0.098,-1.977 -0.055,-2.367 l -2.886,0 c -0.02,0.355 0.031,1.078 0.144,2.168 0.035,0.382 0.055,0.644 0.055,0.785 0,0.293 -0.075,0.5 -0.223,0.621 -0.144,0.117 -0.43,0.18 -0.855,0.18 l -1.121,0 -0.797,-3.754 -2.676,0 z m 4.34,7.839 -0.493,-2.355 0.997,0 c 0.57,0 0.941,0.027 1.121,0.078 0.504,0.152 0.816,0.516 0.929,1.094 0.028,0.121 0.039,0.234 0.039,0.332 0,0.371 -0.175,0.621 -0.531,0.746 -0.215,0.07 -0.566,0.105 -1.066,0.105 l -0.996,0 z m 4.515,-7.839 5.828,9.609 3.25,0 1.758,-9.609 -3.011,0 -0.25,1.929 -3.848,0 -1.067,-1.929 -2.66,0 z m 4.723,3.699 2.609,0 -0.382,4.035 -0.043,0 -2.184,-4.035 z m 7.176,-3.699 2.035,9.582 7.215,0 -0.387,-1.836 -4.578,0 -0.426,-1.996 4.313,0 -0.399,-1.836 -4.312,0 -0.426,-2.051 4.684,0 -0.399,-1.863 -7.32,0 z" />
        <path
           inkscape:connector-curvature="0"
           id="path62944"
           style="fill:#3564b8;fill-opacity:1;fill-rule:evenodd;stroke:none"
           d="m 95.801,94.059 17.906,0 -0.656,-3.098 -17.903,0 0.653,3.098 z" />
        <path
           inkscape:connector-curvature="0"
           id="path62946"
           style="fill:#3564b8;fill-opacity:1;fill-rule:evenodd;stroke:none"
           d="m 96.77,98.703 17.902,0 -0.656,-3.098 -17.903,0 0.657,3.098 z" />
        <path
           inkscape:connector-curvature="0"
           id="path62948"
           style="fill:#3564b8;fill-opacity:1;fill-rule:evenodd;stroke:none"
           d="m 91.512,73.613 17.902,0 -0.652,-3.097 -17.907,0 0.657,3.097 z" />
        <path
           inkscape:connector-curvature="0"
           id="path62950"
           style="fill:#3564b8;fill-opacity:1;fill-rule:evenodd;stroke:none"
           d="m 92.48,78.258 17.903,0 -0.66,-3.098 -17.903,0 0.66,3.098 z" />
      </g>
      <g
         inkscape:label="Camada 1"
         id="layer1-3"
         transform="translate(447.9118,-239.61511)">
        <g
           id="g64430"
           transform="matrix(3.6949605,0,0,-3.6885388,32.047232,689.45432)">
          <g
             id="g63327">
            <path
               d="m 82.457,49.227 c -0.242,-0.012 -0.492,0 -0.734,-0.04 -0.5,-0.097 -0.84,-0.554 -0.977,-1.023 -0.012,-0.109 -0.137,-0.277 0.012,-0.328 0.433,-0.281 0.871,-0.567 1.304,-0.852 0.696,0.5 1.54,0.719 2.368,0.871 0.492,0.086 0.988,0.141 1.484,0.164 -0.551,0.563 -1.309,0.887 -2.066,1.063 -0.438,0.098 -0.887,0.145 -1.332,0.145 l -0.059,0"
               style="fill:url(#linearGradient3116);fill-opacity:1;fill-rule:nonzero;stroke:none"
               id="path63335"
               inkscape:connector-curvature="0" />
          </g>
          <g
             id="g63337">
            <path
               d="m 82.297,49.879 c -0.832,-0.008 -1.649,-0.235 -2.344,-0.66 -0.703,-0.434 -1.285,-1.078 -1.601,-1.86 -0.137,-0.355 -0.258,-0.734 -0.262,-1.121 0.004,-0.535 0.39,-1.008 0.898,-1.164 0.367,-0.125 0.742,-0.129 1.11,-0.222 0.664,-0.137 1.336,-0.317 1.925,-0.645 0.344,-0.195 0.676,-0.453 0.817,-0.848 0.187,-0.535 -0.25,-1.129 -0.781,-1.23 -0.778,-0.16 -1.539,0.183 -2.196,0.562 -0.578,0.356 -1.097,0.782 -1.574,1.258 0.258,-0.664 0.672,-1.246 1.215,-1.722 0.836,-0.731 1.988,-1.137 3.125,-1.051 1.59,0.078 3.086,1.133 3.711,2.601 0.234,0.496 0.308,1.121 0.055,1.621 -0.129,0.25 -0.375,0.438 -0.641,0.524 -0.371,0.129 -0.789,0.074 -1.188,0.144 -0.699,0.094 -1.418,0.243 -2.015,0.567 -0.27,0.144 -0.535,0.351 -0.699,0.605 -0.125,0.196 -0.207,0.438 -0.172,0.696 0.031,0.273 0.121,0.535 0.336,0.726 0.453,0.383 1.109,0.363 1.668,0.277 0.796,-0.14 1.57,-0.453 2.238,-0.921 -0.668,0.968 -1.731,1.632 -2.875,1.812 -0.211,0.031 -0.43,0.055 -0.649,0.055 -0.035,0 -0.066,0 -0.101,-0.004"
               style="fill:url(#radialGradient3118);fill-opacity:1;fill-rule:nonzero;stroke:none"
               id="path63351"
               inkscape:connector-curvature="0" />
          </g>
          <path
             d="M 116.039,45.742 C 116.02,45.742 116,45.723 116,45.703 l 0,-0.375 c 0,-0.019 0.02,-0.039 0.039,-0.039 l 0.766,0 c 0.023,0 0.043,0.02 0.043,0.039 l 0,0.375 c 0,0.02 -0.02,0.039 -0.043,0.039 l -0.766,0 z m 7.406,1.184 0.567,0 c 0.468,0 0.597,-0.024 0.722,-0.153 0.2,-0.195 0.204,-0.472 0,-0.656 -0.117,-0.109 -0.304,-0.152 -0.722,-0.172 l -0.567,-0.031 0,1.012 z m -4.59,0 0.454,0 c 0.398,0 0.476,-0.024 0.617,-0.199 0.203,-0.262 0.191,-0.434 -0.024,-0.68 -0.132,-0.16 -0.257,-0.207 -0.605,-0.242 l -0.442,-0.051 0,1.172 z m 3.055,0.992 0,-4.977 1.535,0 0,2.094 0.243,-0.051 c 0.304,-0.062 0.39,-0.175 0.949,-1.215 l 0.441,-0.828 1.727,0 -0.422,0.828 c -0.477,0.922 -0.598,1.09 -0.91,1.254 l -0.223,0.121 0.355,0.172 c 0.418,0.207 0.633,0.446 0.747,0.871 0.171,0.653 -0.098,1.313 -0.645,1.579 -0.305,0.148 -0.465,0.152 -2.059,0.152 l -1.738,0 z m -4.621,0.031 -0.008,-2.5 -0.019,-2.508 1.593,0 0,0.918 c 0,0.508 0.008,0.918 0.02,0.922 0.012,0.004 0.328,0.031 0.707,0.051 0.918,0.051 1.211,0.133 1.523,0.445 0.547,0.551 0.575,1.641 0.047,2.215 -0.343,0.383 -0.527,0.418 -2.257,0.438 l -1.606,0.019 z m -6.031,0.082 0,-3.058 c 0,-1.379 0.722,-2.032 2.199,-2.032 1.477,0 2.199,0.653 2.199,2.032 l 0,3.058 -1.484,0 0,-2.715 c 0,-0.507 0,-1.14 -0.707,-1.14 -0.723,0 -0.727,0.633 -0.727,1.14 l 0,2.715 -1.48,0 z m -8.789,0 0,-4.98 4.078,0 0,1.273 -2.586,0 0,0.621 2.281,0 0,1.184 -2.281,0 0,0.625 2.504,0 0,1.277 -3.996,0 z m -9.817,0 0,-3.058 c 0,-1.379 0.735,-2.032 2.207,-2.032 1.477,0 2.2,0.653 2.2,2.032 l 0,3.058 -1.493,0 0,-2.715 c 0,-0.507 0,-1.14 -0.707,-1.14 -0.722,0 -0.714,0.633 -0.714,1.14 l 0,2.715 -1.493,0 z m 16.172,0.11 c -0.992,0 -1.945,-0.489 -1.945,-1.641 0,-1 0.879,-1.211 1.644,-1.434 0.832,-0.246 1.039,-0.32 1.039,-0.578 0,-0.371 -0.371,-0.457 -0.617,-0.457 -0.277,0 -0.605,0.067 -0.715,0.367 -0.035,0.09 -0.05,0.207 -0.05,0.332 l -1.492,0 c 0.011,-1.586 1.578,-1.789 2.128,-1.789 1.075,0 2.231,0.414 2.231,1.707 0,0.914 -0.672,1.243 -1.356,1.438 -0.683,0.195 -1.375,0.262 -1.402,0.617 0,0.281 0.332,0.344 0.535,0.344 0.149,0 0.313,-0.039 0.434,-0.129 0.125,-0.086 0.211,-0.207 0.183,-0.395 l 1.403,0 c -0.043,1.211 -0.969,1.618 -2.02,1.618 m -8.949,0 c -1.488,0 -2.441,-1.032 -2.441,-2.602 0,-1.469 0.878,-2.598 2.441,-2.598 1.414,0 2.211,1.059 2.211,2.063 l -1.465,0 c -0.086,-0.465 -0.285,-0.828 -0.785,-0.828 -0.699,0 -0.918,0.695 -0.918,1.363 0,0.668 0.219,1.367 0.918,1.367 0.617,0 0.75,-0.547 0.777,-0.73 l 1.453,0 c -0.128,1.25 -0.863,1.957 -2.191,1.965 m -9.645,0 c -0.996,0 -1.949,-0.489 -1.949,-1.641 0,-1 0.871,-1.211 1.637,-1.434 0.832,-0.246 1.039,-0.32 1.039,-0.578 0,-0.371 -0.371,-0.457 -0.617,-0.457 -0.278,0 -0.598,0.067 -0.707,0.367 -0.031,0.09 -0.047,0.207 -0.047,0.332 l -1.496,0 c 0.015,-1.586 1.582,-1.789 2.129,-1.789 1.078,0 2.23,0.414 2.23,1.707 0,0.914 -0.679,1.243 -1.363,1.438 -0.684,0.195 -1.375,0.262 -1.402,0.617 0,0.281 0.332,0.344 0.535,0.344 0.148,0 0.324,-0.039 0.445,-0.129 0.121,-0.086 0.199,-0.207 0.172,-0.395 l 1.414,0 c -0.043,1.211 -0.973,1.618 -2.02,1.618"
             style="fill:#1f1719;fill-opacity:1;fill-rule:nonzero;stroke:none"
             id="path63353"
             inkscape:connector-curvature="0" />
        </g>
      </g>
    </g>
  </g>
</svg>
