<?xml version="1.0" encoding="UTF-8" standalone="no"?>
<!-- Created with Inkscape (http://www.inkscape.org/) -->

<svg
   xmlns:dc="http://purl.org/dc/elements/1.1/"
   xmlns:cc="http://creativecommons.org/ns#"
   xmlns:rdf="http://www.w3.org/1999/02/22-rdf-syntax-ns#"
   xmlns:svg="http://www.w3.org/2000/svg"
   xmlns="http://www.w3.org/2000/svg"
   xmlns:sodipodi="http://sodipodi.sourceforge.net/DTD/sodipodi-0.dtd"
   xmlns:inkscape="http://www.inkscape.org/namespaces/inkscape"
   width="179.99998"
   height="45.280136"
   id="svg2"
   version="1.1"
   inkscape:version="0.48.3.1 r9886"
   sodipodi:docname="Novo documento 1">
  <defs
     id="defs4" />
  <sodipodi:namedview
     id="base"
     pagecolor="#ffffff"
     bordercolor="#666666"
     borderopacity="1.0"
     inkscape:pageopacity="0.0"
     inkscape:pageshadow="2"
     inkscape:zoom="3.959798"
     inkscape:cx="98.40906"
     inkscape:cy="16.107482"
     inkscape:document-units="px"
     inkscape:current-layer="layer1"
     showgrid="false"
     inkscape:window-width="1600"
     inkscape:window-height="876"
     inkscape:window-x="0"
     inkscape:window-y="24"
     inkscape:window-maximized="1"
     fit-margin-top="0"
     fit-margin-left="0"
     fit-margin-right="0"
     fit-margin-bottom="0" />
  <metadata
     id="metadata7">
    <rdf:RDF>
      <cc:Work
         rdf:about="">
        <dc:format>image/svg+xml</dc:format>
        <dc:type
           rdf:resource="http://purl.org/dc/dcmitype/StillImage" />
        <dc:title></dc:title>
      </cc:Work>
    </rdf:RDF>
  </metadata>
  <g
     inkscape:label="Camada 1"
     inkscape:groupmode="layer"
     id="layer1"
     transform="translate(-216.64257,-695.06193)">
    <g
       id="g3329"
       transform="matrix(1.0303571,0,0,1.0303571,-6.5766514,-22.474676)">
      <g
         transform="translate(5.3033009,-4.4339549e-7)"
         id="g3258">
        <path
           inkscape:connector-curvature="0"
           style="fill:#a0d7ef"
           d="m 223.04251,739.65429 c -7.407,-1.9901 -10.92303,-6.42669 -11.64116,-14.68901 -0.77445,-8.91028 5.85842,-25.78704 10.97498,-27.92487 2.59075,-1.08248 7.48989,-0.69488 6.95498,0.55026 -0.0927,0.21591 -1.12202,2.12711 -2.28726,4.24713 -7.3853,13.43665 -8.66191,24.04894 -3.47499,28.8872 1.58209,1.47575 5.10137,2.89453 7.89506,3.18287 l 2.46012,0.2539 -1.58245,-1.67788 c -1.96259,-2.08095 -3.1652,-5.88139 -2.81003,-8.88019 0.65788,-5.55482 3.7121,-10.87465 7.25739,-12.64095 1.98112,-0.98701 6.20466,-1.8662 6.20466,-1.29159 0,0.13319 -0.69314,1.46845 -1.54032,2.96726 -5.09411,9.0124 -5.61013,15.36158 -1.39174,17.12413 2.37815,0.99366 7.6469,0.79939 12.63463,-0.46585 9.65819,-2.45 24.4298,-9.36707 33.28554,-15.58655 1.57032,-1.10286 2.96816,-1.89217 3.1063,-1.75402 0.13814,0.13814 -2.47309,2.2799 -5.80275,4.75946 -22.62534,16.84886 -47.56475,26.34504 -60.24296,22.9387 z"
           id="path3256" />
        <path
           inkscape:connector-curvature="0"
           style="fill:#a0d7ef"
           d="m 245.67981,725.00018 c -1.58405,-1.58405 -1.73543,-3.47283 -0.41307,-5.15393 2.73605,-3.47832 8.47252,-0.28725 6.78919,3.77667 -1.21854,2.94183 -4.17331,3.58007 -6.37612,1.37726 z"
           id="path3240" />
        <path
           inkscape:connector-curvature="0"
           style="fill:#53b8e4"
           d="m 223.65193,739.77136 c -6.19436,-1.58633 -9.54502,-4.44447 -11.11177,-9.47843 -1.32115,-4.24486 -1.48615,-7.30628 -0.64154,-11.90311 1.33615,-7.27205 3.92924,-13.74784 7.42233,-18.53596 1.85248,-2.53927 3.66523,-3.45782 6.82401,-3.45782 3.08815,0 3.63327,0.76254 2.1851,3.05659 -5.85537,9.27551 -9.16683,20.89576 -7.57497,26.58133 1.09858,3.92374 5.11903,7.18092 9.61718,7.79139 1.08062,0.14666 2.47493,0.36826 3.09846,0.49244 1.10517,0.22011 1.09766,0.19246 -0.29843,-1.09862 -4.32908,-4.00349 -4.75135,-10.15058 -1.16893,-17.01636 1.7181,-3.29278 3.23294,-4.70167 6.35145,-5.90724 1.9792,-0.76513 4.83555,-1.02082 4.56341,-0.4085 -0.0831,0.18706 -0.9397,1.72781 -1.90348,3.42388 -3.31071,5.82628 -4.6136,11.12136 -3.474,14.11874 1.62888,4.2843 10.3276,4.03014 23.31789,-0.6813 5.60257,-2.03199 18.26268,-8.41275 23.25763,-11.72196 2.29011,-1.51722 4.30745,-2.75859 4.48299,-2.75859 0.50247,0 -5.97548,5.00558 -10.70159,8.26924 -5.08536,3.51173 -14.60978,9.03212 -20.12388,11.6639 -13.26183,6.32961 -27.03478,9.38532 -34.12186,7.57038 z"
           id="path3230" />
        <path
           inkscape:connector-curvature="0"
           style="fill:#53b8e4"
           d="m 246.57089,725.65633 c -1.71953,-0.95003 -2.48339,-3.03357 -1.75598,-4.7897 1.57991,-3.81423 7.2485,-2.68706 7.2485,1.44133 0,2.78758 -3.09382,4.67365 -5.49252,3.34837 z"
           id="path3214" />
        <path
           inkscape:connector-curvature="0"
           style="fill:#a09e9f"
           d="m 223.65193,739.77136 c -6.19436,-1.58633 -9.54502,-4.44447 -11.11177,-9.47843 -1.32115,-4.24486 -1.48615,-7.30628 -0.64154,-11.90311 1.33615,-7.27205 3.92924,-13.74784 7.42233,-18.53596 1.85248,-2.53927 3.66523,-3.45782 6.82401,-3.45782 3.08815,0 3.63327,0.76254 2.1851,3.05659 -5.85537,9.27551 -9.16683,20.89576 -7.57497,26.58133 1.09858,3.92374 5.11903,7.18092 9.61718,7.79139 1.08062,0.14666 2.47493,0.36826 3.09846,0.49244 1.10517,0.22011 1.09766,0.19246 -0.29843,-1.09862 -4.32908,-4.00349 -4.75135,-10.15058 -1.16893,-17.01636 1.7181,-3.29278 3.23294,-4.70167 6.35145,-5.90724 1.9792,-0.76513 4.83555,-1.02082 4.56341,-0.4085 -0.0831,0.18706 -0.9397,1.72781 -1.90348,3.42388 -3.31071,5.82628 -4.6136,11.12136 -3.474,14.11874 1.62888,4.2843 10.3276,4.03014 23.31789,-0.6813 5.60257,-2.03199 18.26268,-8.41275 23.25763,-11.72196 2.29011,-1.51722 4.30745,-2.75859 4.48299,-2.75859 0.50247,0 -5.97548,5.00558 -10.70159,8.26924 -5.08536,3.51173 -14.60978,9.03212 -20.12388,11.6639 -13.26183,6.32961 -27.03478,9.38532 -34.12186,7.57038 z"
           id="path3204" />
        <path
           inkscape:connector-curvature="0"
           style="fill:#a09e9f"
           d="m 245.79374,724.82269 c -1.4381,-1.53079 -1.33822,-4.04932 0.20885,-5.26625 2.48305,-1.95317 6.06082,-0.36643 6.06082,2.68796 0,3.14646 -4.13746,4.84791 -6.26967,2.57829 z"
           id="path3188" />
        <path
           inkscape:connector-curvature="0"
           style="fill:#0498d9"
           d="m 224.61409,739.72248 c -9.52857,-1.7313 -13.48236,-7.46657 -12.77302,-18.52815 0.1469,-2.29072 0.59456,-5.38934 0.99481,-6.88583 1.89918,-7.10089 6.59438,-15.79309 9.16502,-16.96715 1.95385,-0.89236 5.67007,-1.1291 6.55227,-0.41741 0.68316,0.55113 0.52472,1.0107 -1.75571,5.09236 -1.37865,2.46761 -3.28201,6.54893 -4.22969,9.0696 -4.92067,13.08825 -2.16472,21.03981 7.93964,22.9077 4.45717,0.82396 4.79163,0.71008 2.78134,-0.94697 -2.40014,-1.9784 -3.42363,-4.42283 -3.4359,-8.20604 -0.019,-5.87182 2.97314,-11.76184 6.94332,-13.66773 2.3548,-1.13043 5.74416,-1.97794 5.74416,-1.43633 0,0.15977 -1.15391,2.64536 -2.56425,5.52353 -2.24063,4.57258 -2.59144,5.65663 -2.77965,8.5894 -0.21396,3.33383 -0.20495,3.36683 1.34143,4.91321 1.91634,1.91634 4.97553,2.43889 9.85024,1.68255 8.8816,-1.37802 24.89795,-8.219 35.75903,-15.27354 2.05766,-1.33651 3.74121,-2.35389 3.74121,-2.26085 0,0.20319 -8.88811,6.80061 -11.84098,8.78927 -1.15014,0.77458 -4.4152,2.76769 -7.25568,4.42913 -13.26203,7.75717 -23.92934,11.9147 -34.86747,13.58942 -5.00532,0.76637 -5.11311,0.76641 -9.31012,0.004 z"
           id="path3178" />
        <path
           inkscape:connector-curvature="0"
           style="fill:#0498d9"
           d="m 245.79374,724.82269 c -1.4381,-1.53079 -1.33822,-4.04932 0.20885,-5.26625 2.48305,-1.95317 6.06082,-0.36643 6.06082,2.68796 0,3.14646 -4.13746,4.84791 -6.26967,2.57829 z"
           id="path3162" />
        <path
           inkscape:connector-curvature="0"
           style="fill:#6c6b6b"
           d="m 224.61409,739.72248 c -9.52857,-1.7313 -13.48236,-7.46657 -12.77302,-18.52815 0.1469,-2.29072 0.59456,-5.38934 0.99481,-6.88583 1.89918,-7.10089 6.59438,-15.79309 9.16502,-16.96715 1.95385,-0.89236 5.67007,-1.1291 6.55227,-0.41741 0.68316,0.55113 0.52472,1.0107 -1.75571,5.09236 -1.37865,2.46761 -3.28201,6.54893 -4.22969,9.0696 -4.92067,13.08825 -2.16472,21.03981 7.93964,22.9077 4.45717,0.82396 4.79163,0.71008 2.78134,-0.94697 -2.40014,-1.9784 -3.42363,-4.42283 -3.4359,-8.20604 -0.019,-5.87182 2.97314,-11.76184 6.94332,-13.66773 2.3548,-1.13043 5.74416,-1.97794 5.74416,-1.43633 0,0.15977 -1.15391,2.64536 -2.56425,5.52353 -2.24063,4.57258 -2.59144,5.65663 -2.77965,8.5894 -0.21396,3.33383 -0.20495,3.36683 1.34143,4.91321 1.91634,1.91634 4.97553,2.43889 9.85024,1.68255 8.8816,-1.37802 24.89795,-8.219 35.75903,-15.27354 2.05766,-1.33651 3.74121,-2.35389 3.74121,-2.26085 0,0.20319 -8.88811,6.80061 -11.84098,8.78927 -1.15014,0.77458 -4.4152,2.76769 -7.25568,4.42913 -13.26203,7.75717 -23.92934,11.9147 -34.86747,13.58942 -5.00532,0.76637 -5.11311,0.76641 -9.31012,0.004 z"
           id="path3152" />
        <path
           inkscape:connector-curvature="0"
           style="fill:#545152"
           d="m 222.58721,739.20682 c -3.30643,-0.87973 -6.21542,-2.71973 -8.00101,-5.0608 -3.04226,-3.98866 -3.64361,-12.11829 -1.49992,-20.27745 1.78116,-6.77937 6.2899,-15.09274 8.84943,-16.31687 2.00247,-0.95771 4.77051,-1.30033 6.1694,-0.76363 l 1.20984,0.46418 -2.44878,4.43204 c -5.11787,9.2628 -7.64747,17.91166 -6.6415,22.70766 0.68264,3.25449 2.45561,6.21846 4.54164,7.5925 1.84515,1.21537 6.25075,2.50392 8.56102,2.50392 l 1.47998,0 -1.94224,-1.94224 c -3.63515,-3.63514 -4.02815,-9.34296 -1.06025,-15.39863 2.33824,-4.77092 3.24672,-5.59706 7.56524,-6.87952 3.81617,-1.13328 3.87514,-1.04759 1.75259,2.54676 -1.80023,3.04852 -3.84115,8.18173 -4.24533,10.67764 -0.45874,2.83279 1.00846,5.67987 3.4254,6.64693 4.31194,1.7253 13.93297,-0.1715 25.13835,-4.95605 3.98908,-1.70328 13.48713,-6.62773 17.06584,-8.84812 4.9479,-3.06988 3.7317,-1.87111 -2.55447,2.51787 -22.45168,15.67567 -44.94807,23.65763 -57.36523,20.35381 z"
           id="path3142" />
        <path
           inkscape:connector-curvature="0"
           style="fill:#363334"
           d="m 223.26743,739.29116 c -2.66305,-0.65987 -5.91218,-2.24058 -7.41394,-3.6069 -3.1124,-2.83172 -4.66033,-9.47151 -3.76894,-16.16665 1.22892,-9.2302 6.15969,-19.97653 10.10107,-22.0147 1.55846,-0.80591 5.64365,-1.03448 6.32429,-0.35384 0.30414,0.30414 -0.51789,2.32072 -2.48097,6.08626 -4.20533,8.06657 -5.84695,13.17191 -5.89657,18.33801 -0.034,3.54191 0.11606,4.39274 1.11916,6.34453 2.01553,3.92169 5.45148,5.90808 11.0855,6.40875 l 2.72088,0.24179 -1.48638,-1.21642 c -4.60793,-3.77106 -4.80739,-12.11849 -0.44552,-18.64522 1.66338,-2.48895 5.36939,-4.70633 7.86589,-4.70633 l 1.4633,0 -2.36827,4.66098 c -3.99297,7.85855 -4.34058,12.58418 -1.09562,14.89478 3.36862,2.39868 11.99013,1.33419 22.56168,-2.78567 5.967,-2.32541 14.64859,-6.54094 19.41978,-9.42967 2.05766,-1.24582 3.74121,-2.19192 3.74121,-2.10244 0,0.3916 -9.31633,6.74255 -14.25231,9.71583 -19.14445,11.532 -36.83077,16.90484 -47.19424,14.33691 z"
           id="path3132" />
      </g>
      <g
         id="g3271">
        <path
           style="fill:#a0d7ef"
           d="m 293.78358,737.9255 0,-1.62321 5.44176,0 c 4.32586,0 5.44176,-0.1284 5.44176,-0.62613 0,-0.47596 -1.04754,-0.67195 -4.3676,-0.81716 -4.09237,-0.17899 -4.43528,-0.26971 -5.44176,-1.43981 -1.38546,-1.61071 -1.37137,-3.46598 0.0379,-4.98659 1.09361,-1.18001 1.21069,-1.19992 7.05769,-1.19992 l 5.94562,0 -0.1421,1.40592 -0.1421,1.40591 -5.2081,0.0679 c -4.56741,0.0595 -5.22698,0.16552 -5.36164,0.86149 -0.13753,0.71081 0.29509,0.79359 4.14745,0.79359 4.24602,0 4.31601,0.0178 5.47502,1.39523 1.46479,1.7408 1.48883,3.1761 0.0807,4.81483 -1.07976,1.25653 -1.16715,1.27421 -7.02894,1.42176 l -5.93559,0.14941 0,-1.62322 z"
           id="path3254"
           inkscape:connector-curvature="0" />
        <path
           style="fill:#a0d7ef"
           d="m 314.03902,739.17432 c -0.16628,-0.16627 -0.30232,-1.30068 -0.30232,-2.5209 0,-1.39194 -0.17227,-2.11211 -0.46235,-1.93284 -0.25429,0.15717 -1.17614,0.0502 -2.04854,-0.23774 -1.94752,-0.64274 -2.93087,-2.38306 -2.93087,-5.18698 0,-2.04934 0.0105,-2.06318 1.56233,-2.06318 1.54212,0 1.56412,0.0279 1.70055,2.15404 l 0.13822,2.15403 3.85458,0 3.85458,0 0.13821,-2.15403 c 0.1316,-2.05086 0.20219,-2.15404 1.47381,-2.15404 1.32563,0 1.3356,0.0197 1.3356,2.64184 0,3.10305 -1.05672,4.4744 -3.78955,4.91788 -1.63771,0.26576 -1.65221,0.2875 -1.65221,2.47618 0,2.12222 -0.05,2.20807 -1.28486,2.20807 -0.70668,0 -1.42091,-0.13605 -1.58718,-0.30233 z"
           id="path3252"
           inkscape:connector-curvature="0" />
        <path
           style="fill:#a0d7ef"
           d="m 323.21443,739.24992 c -0.0249,-0.12471 -0.0663,-0.78793 -0.0918,-1.47381 l -0.0465,-1.24707 5.38368,-0.22674 c 3.73559,-0.15734 5.44114,-0.40027 5.57138,-0.79359 0.10323,-0.31177 0.0176,-0.5731 -0.19021,-0.58073 -0.20785,-0.008 -2.14746,-0.0586 -4.31025,-0.11337 -3.46263,-0.0876 -4.07203,-0.23082 -5.10165,-1.19887 -1.56517,-1.47158 -1.58349,-3.74268 -0.0426,-5.28356 1.09775,-1.09775 1.27535,-1.12342 6.91557,-0.99971 l 5.7889,0.12696 0,1.33027 0,1.33027 -4.98828,-0.0948 c -4.91317,-0.0933 -6.53948,0.24641 -5.92658,1.23812 0.19046,0.30816 1.86418,0.50418 4.30501,0.50418 4.91029,0 6.39223,0.82544 6.36869,3.54738 -0.0294,3.3975 -1.5619,4.16178 -8.34515,4.16178 -2.88466,0 -5.26524,-0.10204 -5.29018,-0.22674 z"
           id="path3250"
           inkscape:connector-curvature="0" />
        <path
           style="fill:#a0d7ef"
           d="m 342.30594,734.7096 0,-4.82453 -2.15403,0.13493 c -2.12709,0.13324 -2.15581,0.11665 -2.29613,-1.32619 l -0.14211,-1.46112 6.17945,0 6.17944,0 -0.1421,1.43282 c -0.13642,1.37549 -0.22376,1.43266 -2.18276,1.42881 l -2.04066,-0.004 -0.22674,4.57982 -0.22674,4.57981 -1.47381,0.1421 -1.47381,0.14211 0,-4.82453 z"
           id="path3248"
           inkscape:connector-curvature="0" />
        <path
           style="fill:#a0d7ef"
           d="m 352.89787,739.02699 c -1.76059,-0.71048 -2.42929,-2.24544 -2.42929,-5.57629 0,-5.39471 0.88346,-6.18394 6.9443,-6.20358 l 4.45016,-0.0144 -0.1421,1.40526 -0.1421,1.40525 -3.84864,0.0686 c -3.27243,0.0583 -3.87147,0.18737 -4.0012,0.86215 -0.13579,0.70631 0.27814,0.79359 3.764,0.79359 l 3.91656,0 -0.1421,1.47381 -0.1421,1.47381 -3.74193,0 c -3.2617,0 -3.74184,0.10184 -3.74121,0.79359 4.5e-4,0.69696 0.49766,0.79359 4.08204,0.79359 l 4.08132,0 0,1.58718 0,1.58718 -3.96795,-0.0288 c -2.18237,-0.0158 -4.40526,-0.20522 -4.93976,-0.42092 z"
           id="path3246"
           inkscape:connector-curvature="0" />
        <path
           style="fill:#a0d7ef"
           d="m 362.4274,738.80779 c -0.14116,-0.36788 -0.18577,-2.59654 -0.0991,-4.95259 0.13942,-3.7913 0.2839,-4.41813 1.25691,-5.45311 1.04451,-1.11104 1.33409,-1.1694 5.80248,-1.1694 4.38878,0 4.77749,0.0744 5.81619,1.11309 1.04743,1.04743 1.11309,1.40854 1.11309,6.12198 l 0,5.0089 -1.36044,0 -1.36044,0 0,-4.5348 c 0,-2.6831 -0.18517,-4.55795 -0.45348,-4.59149 -2.10275,-0.26285 -2.03414,-0.40528 -2.1702,4.50564 l -0.12954,4.6757 -1.45764,-0.1409 -1.45764,-0.14089 -0.0661,-4.5348 c -0.0687,-4.71381 -0.0213,-4.60891 -1.97456,-4.36475 -0.26831,0.0336 -0.45348,1.90839 -0.45348,4.59149 l 0,4.5348 -1.37467,0 c -0.79323,0 -1.48324,-0.28291 -1.63135,-0.66887 z"
           id="path3244"
           inkscape:connector-curvature="0" />
        <path
           style="fill:#a0d7ef"
           d="m 377.2239,737.88948 0,-1.58718 5.18826,0 c 3.18543,0 5.30364,-0.18671 5.48717,-0.48365 0.49717,-0.80445 0.0296,-0.9161 -4.23709,-1.01169 -3.64654,-0.0817 -4.2291,-0.2134 -5.26908,-1.19122 -1.55898,-1.46581 -1.58325,-3.74288 -0.0562,-5.26996 1.06858,-1.06858 1.35078,-1.11309 7.05767,-1.11309 l 5.94459,0 -0.14211,1.42159 -0.1421,1.42159 -4.91068,-0.087 c -3.20447,-0.0568 -5.13286,0.0974 -5.55014,0.44371 -1.18855,0.9864 -0.15814,1.3349 3.94701,1.3349 3.91527,0 4.14589,0.0565 5.41499,1.32555 1.49749,1.49749 1.6734,2.98168 0.52188,4.40324 -1.35824,1.67678 -2.58604,1.98037 -8.00937,1.98037 l -5.24483,0 0,-1.58718 z"
           id="path3242"
           inkscape:connector-curvature="0" />
        <path
           style="fill:#a0d7ef"
           d="m 294.23706,711.36089 0,-13.15092 3.17436,0 3.17436,0 0,9.97656 0,9.97656 2.94762,0 2.94762,0 0,-9.97656 0,-9.97656 3.17436,0 3.17436,0 0,9.97656 0,9.97656 2.00357,0 c 3.64218,0 3.43819,0.60827 3.43819,-10.25181 l 0,-9.70131 3.19765,0 3.19766,0 -0.13667,10.57991 -0.13666,10.57991 -1.3078,1.71341 c -2.44286,3.20052 -3.46819,3.40738 -16.94477,3.41866 l -11.90385,0.01 0,-13.15092 z"
           id="path3238"
           inkscape:connector-curvature="0" />
        <path
           style="fill:#a0d7ef"
           d="m 326.43414,711.36089 0,-13.15092 3.17436,0 3.17436,0 0,13.15092 0,13.15092 -3.17436,0 -3.17436,0 0,-13.15092 z"
           id="path3236"
           inkscape:connector-curvature="0" />
        <path
           style="fill:#a0d7ef"
           d="m 334.59678,721.33745 0,-3.17436 11.30461,0 c 9.67228,0 11.4075,-0.10289 12.01722,-0.71261 0.8596,-0.85961 0.91245,-1.73136 0.14364,-2.36942 -0.33537,-0.27832 -4.12226,-0.53387 -9.22321,-0.62238 l -8.65424,-0.15017 -1.8711,-1.29769 c -4.22003,-2.92677 -4.93619,-8.63804 -1.53404,-12.23382 2.38925,-2.52524 2.64896,-2.56703 15.95452,-2.56703 l 12.2872,0 -0.13409,3.06099 -0.13409,3.06099 -11.79048,0.22674 -11.79048,0.22674 -0.15644,1.1083 c -0.28824,2.04204 0.75705,2.2928 9.55752,2.2928 7.16823,0 8.29507,0.10257 9.85169,0.8967 3.32052,1.69399 5.10988,5.70483 4.12094,9.23698 -0.62016,2.215 -3.06535,4.92626 -5.15066,5.71112 -0.77888,0.29316 -5.86189,0.48048 -13.03755,0.48048 l -11.76096,0 0,-3.17436 z"
           id="path3234"
           inkscape:connector-curvature="0" />
        <path
           style="fill:#a0d7ef"
           d="m 371.79563,723.79374 c -2.07258,-0.89897 -3.10076,-1.8698 -4.14307,-3.91203 -0.73406,-1.43827 -0.8587,-2.70971 -0.8587,-8.7593 0,-7.43105 0.14635,-8.1163 2.20944,-10.34541 2.25761,-2.43929 2.89123,-2.56703 12.73288,-2.56703 l 9.09212,0 0,3.16457 0,3.16457 -8.72949,0.12316 -8.72949,0.12316 -0.14075,1.70055 -0.14074,1.70055 8.41675,0 8.41676,0 0,3.17436 0,3.17436 -8.38938,0 -8.38938,0 0,1.26975 c 0,2.25384 0.42503,2.35809 9.61378,2.35809 l 8.52542,0 0,3.17436 0,3.17436 -8.95623,-0.0177 c -6.9448,-0.0137 -9.30965,-0.17104 -10.52992,-0.70032 z"
           id="path3096"
           inkscape:connector-curvature="0" />
        <path
           style="fill:#53b8e4"
           d="m 293.86683,737.7761 0.14349,-1.24707 5.35881,-0.12803 c 4.78177,-0.11424 5.3428,-0.2119 5.21001,-0.90696 -0.12454,-0.6519 -0.77666,-0.79814 -3.99838,-0.89667 -2.11726,-0.0648 -4.29525,-0.34712 -4.83999,-0.62748 -1.39431,-0.7176 -2.11267,-2.64137 -1.54443,-4.13597 0.85771,-2.25595 2.10316,-2.64398 8.0331,-2.50275 l 5.38528,0.12825 0.14349,1.24707 0.14349,1.24708 -5.42337,0 c -4.23438,0 -5.47686,0.1394 -5.66737,0.63588 -0.39843,1.03829 0.10486,1.17804 4.24272,1.17804 3.30397,0 4.13863,0.15263 5.13944,0.93987 1.52141,1.19674 1.65541,3.83652 0.27023,5.32334 -0.85978,0.92286 -1.33893,0.99247 -6.83232,0.99247 l -5.90769,0 0.14349,-1.24707 z"
           id="path3228"
           inkscape:connector-curvature="0" />
        <path
           style="fill:#53b8e4"
           d="m 314.19018,736.75577 0,-2.2674 -1.73488,0 c -2.59941,0 -3.70688,-1.39743 -3.70688,-4.6774 0,-2.56244 0.008,-2.57829 1.36044,-2.57829 1.3316,0 1.36044,0.0484 1.36044,2.28506 l 0,2.28506 3.96795,-0.13103 3.96795,-0.13102 0.13821,-2.15403 c 0.1316,-2.05086 0.20219,-2.15404 1.47381,-2.15404 1.31791,0 1.3356,0.0333 1.3356,2.51476 0,3.13673 -1.29731,4.74093 -3.83397,4.74093 l -1.60779,0 0,2.2674 c 0,2.21701 -0.0303,2.2674 -1.36044,2.2674 -1.33021,0 -1.36044,-0.0504 -1.36044,-2.2674 z"
           id="path3226"
           inkscape:connector-curvature="0" />
        <path
           style="fill:#53b8e4"
           d="m 323.25978,737.66273 0,-1.36044 5.47501,0 c 4.96956,0 5.46106,-0.0733 5.32386,-0.79359 -0.12812,-0.67264 -0.83073,-0.82815 -4.60975,-1.02033 -3.99487,-0.20316 -4.54858,-0.33809 -5.32386,-1.29731 -1.22113,-1.51088 -1.09442,-3.33814 0.33027,-4.76284 1.1628,-1.1628 1.34908,-1.19554 6.8022,-1.19554 l 5.60667,0 0,1.34605 0,1.34605 -5.32839,0.12776 c -4.37725,0.10496 -5.32839,0.24919 -5.32839,0.80799 0,0.53397 0.73122,0.70488 3.4011,0.79496 4.3557,0.14695 5.21376,0.35867 6.33617,1.56344 1.17992,1.26649 1.17185,3.09373 -0.0204,4.60938 -0.92876,1.18073 -1.00916,1.19486 -6.8022,1.19486 l -5.86232,0 0,-1.36044 z"
           id="path3224"
           inkscape:connector-curvature="0" />
        <path
           style="fill:#53b8e4"
           d="m 342.30594,734.48837 0,-4.5348 -2.2674,0 c -2.21702,0 -2.2674,-0.0303 -2.2674,-1.36045 l 0,-1.36044 5.89524,0 5.89524,0 0,1.36044 c 0,1.33021 -0.0504,1.36045 -2.2674,1.36045 l -2.2674,0 0,4.5348 0,4.5348 -1.36044,0 -1.36044,0 0,-4.5348 z"
           id="path3222"
           inkscape:connector-curvature="0" />
        <path
           style="fill:#53b8e4"
           d="m 351.91453,738.09854 c -0.87718,-0.81722 -0.99247,-1.39284 -0.99247,-4.95537 0,-3.83135 0.0601,-4.07802 1.21512,-4.98655 1.06716,-0.83943 1.71598,-0.94007 5.32839,-0.8265 l 4.11327,0.1293 0.14349,1.24707 0.14349,1.24708 -3.79401,0 c -3.53913,0 -4.88235,0.39923 -4.88235,1.45113 0,0.19953 1.83659,0.36279 4.08132,0.36279 l 4.08132,0 0,1.36044 0,1.36044 -3.82782,0 c -2.1053,0 -3.92843,0.16279 -4.0514,0.36176 -0.59342,0.96018 0.67858,1.42106 4.26582,1.54559 3.8146,0.13242 3.84109,0.1416 3.98363,1.38038 l 0.14349,1.24707 -4.47941,0 c -3.88112,0 -4.61197,-0.1235 -5.47188,-0.92463 z"
           id="path3220"
           inkscape:connector-curvature="0" />
        <path
           style="fill:#53b8e4"
           d="m 362.71254,734.24101 c 0,-4.47271 0.072,-4.85418 1.11309,-5.89524 1.03202,-1.03202 1.44034,-1.11309 5.60666,-1.11309 4.25048,0 4.55825,0.0647 5.68911,1.19554 1.13792,1.13792 1.19554,1.42204 1.19554,5.89524 l 0,4.69971 -1.34402,0 -1.34402,0 -0.12979,-4.42143 -0.12979,-4.42143 -1.24707,-0.1435 -1.24707,-0.14349 0,4.56493 0,4.56492 -1.36044,0 -1.36044,0 0,-4.56492 0,-4.56493 -1.24707,0.14349 -1.24707,0.1435 -0.12979,4.42143 -0.12979,4.42143 -1.34402,0 -1.34402,0 0,-4.78216 z"
           id="path3218"
           inkscape:connector-curvature="0" />
        <path
           style="fill:#53b8e4"
           d="m 377.2239,737.66273 0,-1.36044 5.47501,0 c 4.96956,0 5.46106,-0.0733 5.32386,-0.79359 -0.12812,-0.67264 -0.83073,-0.82815 -4.60974,-1.02033 -3.99488,-0.20316 -4.54858,-0.33809 -5.32386,-1.29731 -1.22547,-1.51623 -1.09452,-3.33805 0.34326,-4.77583 1.19688,-1.19688 1.26352,-1.20731 6.91557,-1.08217 l 5.70704,0.12636 0.14212,1.23289 0.14213,1.23288 -5.58389,0.12756 c -4.60444,0.10518 -5.58388,0.24687 -5.58388,0.80778 0,0.53397 0.73122,0.70488 3.4011,0.79496 1.8706,0.0631 3.8546,0.21863 4.40888,0.3456 2.69754,0.61793 3.76138,4.19086 1.79724,6.03607 -0.96373,0.90538 -1.51995,0.98601 -6.8022,0.98601 l -5.75264,0 0,-1.36044 z"
           id="path3216"
           inkscape:connector-curvature="0" />
        <path
           style="fill:#53b8e4"
           d="m 294.53938,724.20948 c -0.16628,-0.16627 -0.30232,-6.08418 -0.30232,-13.15092 l 0,-12.8486 3.17436,0 3.17436,0 0,9.97656 0,9.97656 2.94762,0 2.94762,0 0,-9.97656 0,-9.97656 3.17436,0 3.17436,0 0,9.97656 0,9.97656 2.235,0 c 3.65822,0 3.66024,-0.006 3.66024,-10.68917 l 0,-9.26395 2.97091,0 2.97092,0 -0.13667,10.57991 -0.13666,10.57991 -1.3078,1.71341 c -2.4332,3.18786 -3.50182,3.40737 -16.64245,3.41866 -6.38085,0.005 -11.73758,-0.12609 -11.90385,-0.29237 z"
           id="path3212"
           inkscape:connector-curvature="0" />
        <path
           style="fill:#53b8e4"
           d="m 326.73646,724.20948 c -0.16628,-0.16627 -0.30232,-6.08418 -0.30232,-13.15092 l 0,-12.8486 3.17436,0 3.17436,0 0,13.15092 0,13.15092 -2.87204,0 c -1.57963,0 -3.00809,-0.13604 -3.17436,-0.30232 z"
           id="path3210"
           inkscape:connector-curvature="0" />
        <path
           style="fill:#53b8e4"
           d="m 334.59678,721.37175 0,-3.19336 11.62796,-0.12102 c 10.50242,-0.10931 11.67639,-0.19784 12.12827,-0.91462 0.36423,-0.57774 0.36452,-1.00943 9.1e-4,-1.58718 -0.43783,-0.69598 -1.55304,-0.82181 -9.06728,-1.02306 -9.268,-0.24822 -10.06977,-0.44168 -12.50715,-3.01777 -3.06971,-3.24442 -2.80598,-8.17242 0.60724,-11.34728 1.937,-1.80156 3.1801,-1.9575 15.60551,-1.9575 l 11.9877,0 0,2.94762 0,2.94762 -11.14007,0 c -6.81193,0 -11.48087,0.18239 -12.01722,0.46944 -0.99405,0.532 -1.17043,2.35047 -0.29819,3.07437 0.34865,0.28935 4.01563,0.53694 9.21793,0.62237 8.34172,0.137 8.69543,0.18062 10.28039,1.26779 2.22554,1.52657 3.6781,4.22613 3.6781,6.83569 0,2.5126 -1.10387,4.56125 -3.50329,6.50169 l -1.74168,1.40851 -12.42957,0.14003 -12.42956,0.14003 0,-3.19337 z"
           id="path3208"
           inkscape:connector-curvature="0" />
        <path
           style="fill:#53b8e4"
           d="m 371.38368,723.53334 c -1.28842,-0.64107 -2.45096,-1.71755 -3.31083,-3.06574 l -1.3252,-2.07778 0.13647,-7.51936 c 0.13588,-7.4862 0.14221,-7.52687 1.43608,-9.22158 2.52646,-3.30916 3.01552,-3.43532 13.32513,-3.43722 l 9.18297,-0.002 0,2.94762 0,2.94762 -7.96571,0 c -4.62376,0 -8.33372,0.19694 -8.84286,0.46943 -0.60811,0.32545 -0.87715,0.95136 -0.87715,2.04066 l 0,1.57123 8.38938,0 8.38938,0 0,3.17436 0,3.17436 -8.38938,0 -8.38938,0 0,1.26974 c 0,2.25441 0.42363,2.3581 9.6345,2.3581 l 8.54614,0 -0.13409,3.06099 -0.13409,3.06099 -8.84286,0.11811 c -8.30435,0.11093 -8.96378,0.058 -10.8285,-0.86984 z"
           id="path3094"
           inkscape:connector-curvature="0" />
        <path
           style="fill:#a09e9f"
           d="m 294.23706,737.88947 0,-1.1337 4.93275,0 c 3.7655,0 5.06244,-0.15627 5.4808,-0.66036 1.00982,-1.21676 0.031,-1.60704 -4.03044,-1.60704 -4.77276,0 -6.38311,-0.84448 -6.38311,-3.34734 0,-2.9091 0.61297,-3.20247 7.21865,-3.45487 l 5.93418,-0.22674 -9.1e-4,1.24707 -9.1e-4,1.24708 -5.18825,0 c -5.2478,0 -6.2924,0.32126 -5.2253,1.60704 0.40451,0.48741 1.6024,0.66036 4.57384,0.66036 3.42115,0 4.16201,0.13621 4.93275,0.90696 1.35031,1.3503 1.20929,3.77768 -0.28789,4.95536 -1.05632,0.8309 -1.81871,0.93988 -6.57546,0.93988 l -5.38061,0 0,-1.1337 z"
           id="path3202"
           inkscape:connector-curvature="0" />
        <path
           style="fill:#a09e9f"
           d="m 314.19018,736.75577 0,-2.2674 -1.60779,0 c -2.4989,0 -3.83397,-1.61142 -3.83397,-4.62756 0,-2.25916 0.0671,-2.40139 1.1337,-2.40139 1.02266,0 1.1337,0.17989 1.1337,1.8366 0,1.01013 0.24488,2.08147 0.54417,2.38077 0.56489,0.56489 6.05976,0.76581 7.35464,0.26892 0.51694,-0.19837 0.71731,-0.88642 0.71731,-2.46321 0,-2.11816 0.0398,-2.18352 1.24707,-2.04923 1.18377,0.13167 1.24606,0.25706 1.22732,2.47035 -0.0238,2.80541 -1.08813,4.12242 -3.6709,4.54224 l -1.72016,0.2796 0.13215,2.14885 c 0.13071,2.12567 0.11709,2.14886 -1.26255,2.14886 -1.37131,0 -1.39469,-0.038 -1.39469,-2.2674 z"
           id="path3200"
           inkscape:connector-curvature="0" />
        <path
           style="fill:#a09e9f"
           d="m 323.25978,737.90385 0,-1.1193 5.32839,-0.12777 c 4.98348,-0.11948 5.32839,-0.18646 5.32839,-1.03471 0,-0.82659 -0.34157,-0.9174 -3.85458,-1.0247 -4.27261,-0.13051 -5.55171,-0.5815 -6.29863,-2.22082 -0.72539,-1.59206 -0.6316,-2.22943 0.51676,-3.51188 0.97445,-1.08824 1.28032,-1.14545 6.80283,-1.27236 l 5.7825,-0.13289 -4.5e-4,1.24707 -4.5e-4,1.24708 -5.22925,0 c -4.37642,0 -5.27469,0.1184 -5.50785,0.72598 -0.44532,1.16048 0.72165,1.52705 4.88494,1.53447 4.52072,0.008 5.58007,0.67043 5.58007,3.48903 0,2.8324 -1.13317,3.32012 -7.71405,3.32012 l -5.61826,0 0,-1.11932 z"
           id="path3198"
           inkscape:connector-curvature="0" />
        <path
           style="fill:#a09e9f"
           d="m 342.75942,734.48837 0,-4.5348 -2.2674,0 c -1.96508,0 -2.2674,-0.12093 -2.2674,-0.90696 0,-0.49883 -0.051,-1.02189 -0.11337,-1.16236 -0.0624,-0.14047 2.4885,-0.29352 5.66857,-0.34011 l 5.78194,-0.0847 -7e-5,1.24707 c -7e-5,1.19416 -0.0963,1.24708 -2.26747,1.24708 l -2.2674,0 0,4.5348 c 0,4.5348 0,4.5348 -1.1337,4.5348 -1.1337,0 -1.1337,0 -1.1337,-4.5348 z"
           id="path3196"
           inkscape:connector-curvature="0" />
        <path
           style="fill:#a09e9f"
           d="m 352.03515,737.91008 c -0.99285,-0.99284 -1.11309,-1.49787 -1.11309,-4.67487 0,-5.07403 0.20562,-5.26879 5.85833,-5.54905 l 4.5734,-0.22674 -9.1e-4,1.22942 -9.1e-4,1.22941 -3.96795,0.13103 c -3.62195,0.1196 -3.96795,0.21011 -3.96795,1.03799 0,0.83368 0.30232,0.90696 3.74193,0.90696 l 3.74194,0 -9.1e-4,1.24707 -4.1e-4,1.24707 -3.85458,0 c -2.86041,0 -3.85458,0.15204 -3.85458,0.58952 0,1.27638 1.13395,1.67788 4.73886,1.67788 3.59157,0 3.65052,0.0183 3.65052,1.1337 0,1.12797 -0.0213,1.1337 -4.2153,1.1337 -3.87087,0 -4.30626,-0.091 -5.32839,-1.11309 z"
           id="path3194"
           inkscape:connector-curvature="0" />
        <path
           style="fill:#a09e9f"
           d="m 362.71254,734.34067 c 0,-6.32504 0.23782,-6.56102 6.75888,-6.70653 4.63159,-0.10335 4.73555,-0.083 5.78097,1.13238 0.96274,1.11926 1.06455,1.66888 1.06455,5.74713 l 0,4.50952 -1.34402,0 -1.34402,0 -0.12979,-4.42143 -0.12979,-4.42143 -1.24707,-0.1435 -1.24707,-0.14349 0,4.56493 0,4.56492 -1.36044,0 -1.36044,0 0,-4.5348 0,-4.5348 -1.3518,0 c -1.68549,0 -1.95466,0.86653 -1.74665,5.62292 l 0.15083,3.44878 -1.24707,-9e-4 -1.24707,-9.1e-4 0,-4.68249 z"
           id="path3192"
           inkscape:connector-curvature="0" />
        <path
           style="fill:#a09e9f"
           d="m 377.2239,737.90385 0,-1.1193 5.32839,-0.12777 c 5.13592,-0.12314 5.33362,-0.16461 5.4733,-1.14808 0.14055,-0.98965 0.0287,-1.02033 -3.71987,-1.02033 -2.12563,0 -4.3744,-0.2322 -4.99725,-0.51599 -2.05417,-0.93594 -2.42618,-4.23199 -0.64452,-5.71063 0.3776,-0.31337 2.92559,-0.5769 6.39679,-0.66158 l 5.76921,-0.14075 -9.1e-4,1.24707 -9e-4,1.24708 -5.22925,0 c -4.37642,0 -5.27469,0.1184 -5.50784,0.72598 -0.44612,1.16255 0.72316,1.52706 4.9223,1.53447 3.70707,0.007 3.98949,0.0762 4.87491,1.2018 1.24679,1.58503 1.18709,3.13396 -0.17321,4.49426 -1.0635,1.0635 -1.36655,1.11309 -6.8022,1.11309 l -5.68911,0 0,-1.11932 z"
           id="path3190"
           inkscape:connector-curvature="0" />
        <path
           style="fill:#a09e9f"
           d="m 294.53938,724.20948 c -0.16628,-0.16627 -0.30232,-6.08418 -0.30232,-13.15092 l 0,-12.8486 3.17436,0 3.17436,0 0,9.97656 0,9.97656 2.94762,0 2.94762,0 0,-9.97656 0,-9.97656 3.17436,0 3.17436,0 0,9.97656 0,9.97656 2.235,0 c 3.65822,0 3.66024,-0.006 3.66024,-10.68917 l 0,-9.26395 2.97091,0 2.97092,0 -0.13667,10.57991 -0.13666,10.57991 -1.3078,1.71341 c -2.4332,3.18786 -3.50182,3.40737 -16.64245,3.41866 -6.38085,0.005 -11.73758,-0.12609 -11.90385,-0.29237 z"
           id="path3186"
           inkscape:connector-curvature="0" />
        <path
           style="fill:#a09e9f"
           d="m 326.73646,724.20948 c -0.16628,-0.16627 -0.30232,-6.08418 -0.30232,-13.15092 l 0,-12.8486 3.17436,0 3.17436,0 0,13.15092 0,13.15092 -2.87204,0 c -1.57963,0 -3.00809,-0.13604 -3.17436,-0.30232 z"
           id="path3184"
           inkscape:connector-curvature="0" />
        <path
           style="fill:#a09e9f"
           d="m 334.59678,721.37175 0,-3.19336 11.62796,-0.12102 c 10.50242,-0.10931 11.67639,-0.19784 12.12827,-0.91462 0.36423,-0.57774 0.36452,-1.00943 9.1e-4,-1.58718 -0.43783,-0.69598 -1.55304,-0.82181 -9.06728,-1.02306 -9.268,-0.24822 -10.06977,-0.44168 -12.50715,-3.01777 -3.06971,-3.24442 -2.80598,-8.17242 0.60724,-11.34728 1.937,-1.80156 3.1801,-1.9575 15.60551,-1.9575 l 11.9877,0 0,2.94762 0,2.94762 -11.14007,0 c -6.81193,0 -11.48087,0.18239 -12.01722,0.46944 -0.99405,0.532 -1.17043,2.35047 -0.29819,3.07437 0.34865,0.28935 4.01563,0.53694 9.21793,0.62237 8.34172,0.137 8.69543,0.18062 10.28039,1.26779 2.22554,1.52657 3.6781,4.22613 3.6781,6.83569 0,2.5126 -1.10387,4.56125 -3.50329,6.50169 l -1.74168,1.40851 -12.42957,0.14003 -12.42956,0.14003 0,-3.19337 z"
           id="path3182"
           inkscape:connector-curvature="0" />
        <path
           style="fill:#a09e9f"
           d="m 371.38368,723.53334 c -1.28842,-0.64107 -2.45096,-1.71755 -3.31083,-3.06574 l -1.3252,-2.07778 0.13647,-7.51936 c 0.13588,-7.4862 0.14221,-7.52687 1.43608,-9.22158 2.52646,-3.30916 3.01552,-3.43532 13.32513,-3.43722 l 9.18297,-0.002 0,2.94762 0,2.94762 -7.96571,0 c -4.62376,0 -8.33372,0.19694 -8.84286,0.46943 -0.60811,0.32545 -0.87715,0.95136 -0.87715,2.04066 l 0,1.57123 8.38938,0 8.38938,0 0,3.17436 0,3.17436 -8.38938,0 -8.38938,0 0,1.26974 c 0,2.25441 0.42363,2.3581 9.6345,2.3581 l 8.54614,0 -0.13409,3.06099 -0.13409,3.06099 -8.84286,0.11811 c -8.30435,0.11093 -8.96378,0.058 -10.8285,-0.86984 z"
           id="path3092"
           inkscape:connector-curvature="0" />
        <path
           style="fill:#0498d9"
           d="m 294.23706,737.88947 0,-1.1337 4.93275,0 c 3.7655,0 5.06244,-0.15627 5.4808,-0.66036 1.00982,-1.21676 0.031,-1.60704 -4.03044,-1.60704 -4.77276,0 -6.38311,-0.84448 -6.38311,-3.34734 0,-2.9091 0.61297,-3.20247 7.21865,-3.45487 l 5.93418,-0.22674 -9.1e-4,1.24707 -9.1e-4,1.24708 -5.18825,0 c -5.2478,0 -6.2924,0.32126 -5.2253,1.60704 0.40451,0.48741 1.6024,0.66036 4.57384,0.66036 3.42115,0 4.16201,0.13621 4.93275,0.90696 1.35031,1.3503 1.20929,3.77768 -0.28789,4.95536 -1.05632,0.8309 -1.81871,0.93988 -6.57546,0.93988 l -5.38061,0 0,-1.1337 z"
           id="path3176"
           inkscape:connector-curvature="0" />
        <path
           style="fill:#0498d9"
           d="m 314.19018,736.75577 0,-2.2674 -1.60779,0 c -2.4989,0 -3.83397,-1.61142 -3.83397,-4.62756 0,-2.25916 0.0671,-2.40139 1.1337,-2.40139 1.02266,0 1.1337,0.17989 1.1337,1.8366 0,1.01013 0.24488,2.08147 0.54417,2.38077 0.56489,0.56489 6.05976,0.76581 7.35464,0.26892 0.51694,-0.19837 0.71731,-0.88642 0.71731,-2.46321 0,-2.11816 0.0398,-2.18352 1.24707,-2.04923 1.18377,0.13167 1.24606,0.25706 1.22732,2.47035 -0.0238,2.80541 -1.08813,4.12242 -3.6709,4.54224 l -1.72016,0.2796 0.13215,2.14885 c 0.13071,2.12567 0.11709,2.14886 -1.26255,2.14886 -1.37131,0 -1.39469,-0.038 -1.39469,-2.2674 z"
           id="path3174"
           inkscape:connector-curvature="0" />
        <path
           style="fill:#0498d9"
           d="m 323.25978,737.90385 0,-1.1193 5.32839,-0.12777 c 4.98348,-0.11948 5.32839,-0.18646 5.32839,-1.03471 0,-0.82659 -0.34157,-0.9174 -3.85458,-1.0247 -4.27261,-0.13051 -5.55171,-0.5815 -6.29863,-2.22082 -0.72539,-1.59206 -0.6316,-2.22943 0.51676,-3.51188 0.97445,-1.08824 1.28032,-1.14545 6.80283,-1.27236 l 5.7825,-0.13289 -4.5e-4,1.24707 -4.5e-4,1.24708 -5.22925,0 c -4.37642,0 -5.27469,0.1184 -5.50785,0.72598 -0.44532,1.16048 0.72165,1.52705 4.88494,1.53447 4.52072,0.008 5.58007,0.67043 5.58007,3.48903 0,2.8324 -1.13317,3.32012 -7.71405,3.32012 l -5.61826,0 0,-1.11932 z"
           id="path3172"
           inkscape:connector-curvature="0" />
        <path
           style="fill:#0498d9"
           d="m 342.75942,734.48837 0,-4.5348 -2.2674,0 c -1.96508,0 -2.2674,-0.12093 -2.2674,-0.90696 0,-0.49883 -0.051,-1.02189 -0.11337,-1.16236 -0.0624,-0.14047 2.4885,-0.29352 5.66857,-0.34011 l 5.78194,-0.0847 -7e-5,1.24707 c -7e-5,1.19416 -0.0963,1.24708 -2.26747,1.24708 l -2.2674,0 0,4.5348 c 0,4.5348 0,4.5348 -1.1337,4.5348 -1.1337,0 -1.1337,0 -1.1337,-4.5348 z"
           id="path3170"
           inkscape:connector-curvature="0" />
        <path
           style="fill:#0498d9"
           d="m 352.03515,737.91008 c -0.99285,-0.99284 -1.11309,-1.49787 -1.11309,-4.67487 0,-5.07403 0.20562,-5.26879 5.85833,-5.54905 l 4.5734,-0.22674 -9.1e-4,1.22942 -9.1e-4,1.22941 -3.96795,0.13103 c -3.62195,0.1196 -3.96795,0.21011 -3.96795,1.03799 0,0.83368 0.30232,0.90696 3.74193,0.90696 l 3.74194,0 -9.1e-4,1.24707 -4.1e-4,1.24707 -3.85458,0 c -2.86041,0 -3.85458,0.15204 -3.85458,0.58952 0,1.27638 1.13395,1.67788 4.73886,1.67788 3.59157,0 3.65052,0.0183 3.65052,1.1337 0,1.12797 -0.0213,1.1337 -4.2153,1.1337 -3.87087,0 -4.30626,-0.091 -5.32839,-1.11309 z"
           id="path3168"
           inkscape:connector-curvature="0" />
        <path
           style="fill:#0498d9"
           d="m 362.71254,734.34067 c 0,-6.32504 0.23782,-6.56102 6.75888,-6.70653 4.63159,-0.10335 4.73555,-0.083 5.78097,1.13238 0.96274,1.11926 1.06455,1.66888 1.06455,5.74713 l 0,4.50952 -1.34402,0 -1.34402,0 -0.12979,-4.42143 -0.12979,-4.42143 -1.24707,-0.1435 -1.24707,-0.14349 0,4.56493 0,4.56492 -1.36044,0 -1.36044,0 0,-4.5348 0,-4.5348 -1.3518,0 c -1.68549,0 -1.95466,0.86653 -1.74665,5.62292 l 0.15083,3.44878 -1.24707,-9e-4 -1.24707,-9.1e-4 0,-4.68249 z"
           id="path3166"
           inkscape:connector-curvature="0" />
        <path
           style="fill:#0498d9"
           d="m 377.2239,737.90385 0,-1.1193 5.32839,-0.12777 c 5.13592,-0.12314 5.33362,-0.16461 5.4733,-1.14808 0.14055,-0.98965 0.0287,-1.02033 -3.71987,-1.02033 -2.12563,0 -4.3744,-0.2322 -4.99725,-0.51599 -2.05417,-0.93594 -2.42618,-4.23199 -0.64452,-5.71063 0.3776,-0.31337 2.92559,-0.5769 6.39679,-0.66158 l 5.76921,-0.14075 -9.1e-4,1.24707 -9e-4,1.24708 -5.22925,0 c -4.37642,0 -5.27469,0.1184 -5.50784,0.72598 -0.44612,1.16255 0.72316,1.52706 4.9223,1.53447 3.70707,0.007 3.98949,0.0762 4.87491,1.2018 1.24679,1.58503 1.18709,3.13396 -0.17321,4.49426 -1.0635,1.0635 -1.36655,1.11309 -6.8022,1.11309 l -5.68911,0 0,-1.11932 z"
           id="path3164"
           inkscape:connector-curvature="0" />
        <path
           style="fill:#0498d9"
           d="m 294.69054,711.13414 0,-12.92418 2.94762,0 2.94762,0 0,9.97656 0,9.97656 2.94762,0 2.94762,0 0,-9.97656 0,-9.97656 2.94762,0 2.94762,0 0,9.97656 0,9.97656 2.63018,0 c 1.4466,0 2.87506,-0.24487 3.17436,-0.54417 0.38837,-0.38837 0.54418,-3.2449 0.54418,-9.97656 l 0,-9.43239 2.94762,0 2.94762,0 0,9.83339 c 0,9.05675 -0.0751,9.98846 -0.95052,11.79689 -0.63379,1.30924 -1.59148,2.33913 -2.87409,3.09079 -1.91873,1.12445 -1.95405,1.12729 -14.01433,1.12729 l -12.09074,0 0,-12.92418 z"
           id="path3160"
           inkscape:connector-curvature="0" />
        <path
           style="fill:#0498d9"
           d="m 326.78784,711.13442 0.12696,-12.92446 2.93403,0 2.93403,0 0,12.92418 0,12.92418 -3.06099,2.8e-4 -3.06099,2.8e-4 0.12696,-12.92446 z"
           id="path3158"
           inkscape:connector-curvature="0" />
        <path
           style="fill:#0498d9"
           d="m 334.59678,721.1107 0,-2.94762 11.47304,0 c 8.31884,0 11.62265,-0.1496 12.01722,-0.54417 0.71175,-0.71175 0.69815,-2.477 -0.0227,-2.94353 -0.31177,-0.20178 -4.56278,-0.46891 -9.44669,-0.59362 l -8.87984,-0.22674 -1.71747,-1.31125 c -3.51812,-2.68604 -4.24777,-7.11925 -1.78657,-10.85493 2.12287,-3.22215 3.26581,-3.45756 16.84229,-3.46892 l 11.90385,-0.01 0,2.94762 0,2.94762 -11.53803,0 c -11.23273,0 -11.5558,0.0254 -12.20975,0.95902 -0.68103,0.97231 -0.52566,2.16846 0.36048,2.77524 0.26761,0.18324 4.05771,0.34078 8.42246,0.35007 8.87849,0.0189 10.54312,0.42432 12.81153,3.12017 2.19264,2.60581 2.25136,7.03732 0.13008,9.81845 -2.19138,2.87305 -2.50507,2.93017 -16.09345,2.93017 l -12.26648,0 0,-2.94762 z"
           id="path3156"
           inkscape:connector-curvature="0" />
        <path
           style="fill:#0498d9"
           d="m 371.10192,723.21 c -1.99171,-1.237 -3.36325,-2.88027 -3.86541,-4.6312 -0.24346,-0.84888 -0.43817,-4.29967 -0.43269,-7.6684 0.0132,-8.11385 0.92431,-10.26083 5.09372,-12.00292 1.30387,-0.54479 3.55912,-0.69752 10.30007,-0.69752 l 8.63069,0 0,2.94762 0,2.94762 -8.36367,0 c -8.1287,0 -8.3835,0.0283 -9.0696,1.00787 -0.38826,0.55432 -0.70593,1.47262 -0.70593,2.04066 l 0,1.03279 8.61612,0 8.61612,0 0,2.93762 0,2.93761 -8.50275,0.12338 -8.50275,0.12337 -0.11747,1.1337 c -0.24676,2.38132 0.0833,2.4764 9.44589,2.72088 l 8.68306,0.22674 0.0639,2.83453 0.0639,2.83453 -9.29634,-0.002 c -8.27767,-0.002 -9.44541,-0.0946 -10.65678,-0.84692 z"
           id="path3090"
           inkscape:connector-curvature="0" />
        <path
           style="fill:#6c6b6b"
           d="m 294.69054,711.13414 0,-12.92418 2.94762,0 2.94762,0 0,9.97656 0,9.97656 2.94762,0 2.94762,0 0,-9.97656 0,-9.97656 2.94762,0 2.94762,0 0,9.97656 0,9.97656 2.63018,0 c 1.4466,0 2.87506,-0.24487 3.17436,-0.54417 0.38837,-0.38837 0.54418,-3.2449 0.54418,-9.97656 l 0,-9.43239 2.94762,0 2.94762,0 0,9.83339 c 0,9.05675 -0.0751,9.98846 -0.95052,11.79689 -0.63379,1.30924 -1.59148,2.33913 -2.87409,3.09079 -1.91873,1.12445 -1.95405,1.12729 -14.01433,1.12729 l -12.09074,0 0,-12.92418 z"
           id="path3150"
           inkscape:connector-curvature="0" />
        <path
           style="fill:#6c6b6b"
           d="m 326.78784,711.13442 0.12696,-12.92446 2.93403,0 2.93403,0 0,12.92418 0,12.92418 -3.06099,2.8e-4 -3.06099,2.8e-4 0.12696,-12.92446 z"
           id="path3148"
           inkscape:connector-curvature="0" />
        <path
           style="fill:#6c6b6b"
           d="m 334.59678,721.1107 0,-2.94762 11.47304,0 c 8.31884,0 11.62265,-0.1496 12.01722,-0.54417 0.71175,-0.71175 0.69815,-2.477 -0.0227,-2.94353 -0.31177,-0.20178 -4.56278,-0.46891 -9.44669,-0.59362 l -8.87984,-0.22674 -1.71747,-1.31125 c -3.51812,-2.68604 -4.24777,-7.11925 -1.78657,-10.85493 2.12287,-3.22215 3.26581,-3.45756 16.84229,-3.46892 l 11.90385,-0.01 0,2.94762 0,2.94762 -11.53803,0 c -11.23273,0 -11.5558,0.0254 -12.20975,0.95902 -0.68103,0.97231 -0.52566,2.16846 0.36048,2.77524 0.26761,0.18324 4.05771,0.34078 8.42246,0.35007 8.87849,0.0189 10.54312,0.42432 12.81153,3.12017 2.19264,2.60581 2.25136,7.03732 0.13008,9.81845 -2.19138,2.87305 -2.50507,2.93017 -16.09345,2.93017 l -12.26648,0 0,-2.94762 z"
           id="path3146"
           inkscape:connector-curvature="0" />
        <path
           style="fill:#6c6b6b"
           d="m 371.10192,723.21 c -1.99171,-1.237 -3.36325,-2.88027 -3.86541,-4.6312 -0.24346,-0.84888 -0.43817,-4.29967 -0.43269,-7.6684 0.0132,-8.11385 0.92431,-10.26083 5.09372,-12.00292 1.30387,-0.54479 3.55912,-0.69752 10.30007,-0.69752 l 8.63069,0 0,2.94762 0,2.94762 -8.36367,0 c -8.1287,0 -8.3835,0.0283 -9.0696,1.00787 -0.38826,0.55432 -0.70593,1.47262 -0.70593,2.04066 l 0,1.03279 8.61612,0 8.61612,0 0,2.93762 0,2.93761 -8.50275,0.12338 -8.50275,0.12337 -0.11747,1.1337 c -0.24676,2.38132 0.0833,2.4764 9.44589,2.72088 l 8.68306,0.22674 0.0639,2.83453 0.0639,2.83453 -9.29634,-0.002 c -8.27767,-0.002 -9.44541,-0.0946 -10.65678,-0.84692 z"
           id="path3088"
           inkscape:connector-curvature="0" />
        <path
           style="fill:#545152"
           d="m 294.69054,711.13414 0,-12.92418 2.94762,0 2.94762,0 0,10.2033 0,10.2033 2.94762,0 2.94762,0 0,-10.2033 0,-10.2033 2.93894,0 2.93895,0 0.12204,10.08993 0.12205,10.08993 1.96433,0.14126 c 1.23974,0.0892 2.36885,-0.1238 3.06099,-0.5773 l 1.09666,-0.71857 0,-9.51262 0,-9.51263 2.94762,0 2.94762,0 0,9.41271 c 0,5.17698 -0.20005,10.11023 -0.44455,10.96275 -0.49957,1.74191 -2.34312,3.87296 -4.1811,4.83317 -0.96444,0.50384 -3.78194,0.63973 -13.26429,0.63973 l -12.03974,0 0,-12.92418 z"
           id="path3140"
           inkscape:connector-curvature="0" />
        <path
           style="fill:#545152"
           d="m 326.88762,711.13414 0,-12.92418 2.70728,0 2.70729,0 0.12696,12.92446 0.12697,12.92446 -2.83425,-2.8e-4 -2.83425,-2.8e-4 0,-12.92418 z"
           id="path3138"
           inkscape:connector-curvature="0" />
        <path
           style="fill:#545152"
           d="m 334.68851,721.32608 0.13501,-2.73224 11.46713,-0.10201 c 12.24917,-0.10896 12.31667,-0.12205 12.33363,-2.39208 0.0139,-1.86158 -0.69869,-2.01752 -9.26673,-2.02794 -9.20795,-0.0112 -11.01449,-0.45066 -12.93392,-3.14625 -3.1143,-4.37363 -0.97957,-10.86738 4.02998,-12.25897 0.89407,-0.24836 6.67622,-0.45271 12.84922,-0.4541 l 11.22363,-0.003 0,2.94762 0,2.94762 -11.26672,0 c -10.69841,0 -11.3082,0.0458 -12.08917,0.9088 -0.66767,0.73777 -0.72902,1.11388 -0.32596,1.99849 0.49562,1.08776 0.512,1.08995 9.28906,1.24523 8.7158,0.15418 8.80902,0.16644 10.67676,1.40312 4.94609,3.27494 4.86594,10.52083 -0.14779,13.36045 -1.74724,0.98958 -2.19144,1.02235 -13.95691,1.02957 l -12.15223,0.007 0.13501,-2.73224 z"
           id="path3136"
           inkscape:connector-curvature="0" />
        <path
           style="fill:#545152"
           d="m 371.78237,723.54886 c -0.62341,-0.24859 -1.61211,-0.89886 -2.19711,-1.44507 -2.12921,-1.98795 -2.33792,-2.97059 -2.33792,-11.00697 0,-8.55536 0.3238,-9.61876 3.53733,-11.61693 1.58011,-0.98252 2.20518,-1.05165 10.74729,-1.18868 l 9.0696,-0.14549 0,2.97974 0,2.97974 -8.24362,0 c -9.08662,0 -9.66884,0.1658 -9.66884,2.75328 l 0,1.32804 8.61612,0 8.61612,0 0,2.94762 0,2.94762 -8.61612,0 -8.61612,0 0,1.36044 c 0,0.75581 0.40309,1.76354 0.90696,2.2674 0.83978,0.83978 1.5116,0.90696 9.0696,0.90696 l 8.16264,0 0,2.72088 0,2.72088 -8.95623,-0.0287 c -4.92593,-0.0158 -9.46629,-0.23213 -10.0897,-0.48072 z"
           id="path3086"
           inkscape:connector-curvature="0" />
        <path
           style="fill:#363334"
           d="m 294.69054,711.13414 0,-12.92418 2.7122,0 2.71221,0 0.12204,10.08993 0.12205,10.08993 3.17436,0 3.17436,0 0.12204,-10.08993 0.12205,-10.08993 2.7122,0 2.71221,0 0,10.2033 0,10.2033 2.46174,0 c 3.92846,0 3.88698,0.1165 3.88698,-10.91591 l 0,-9.49069 2.94762,0 2.94762,0 -0.003,9.18297 c -0.003,9.91247 -0.29006,11.78435 -2.14776,13.99209 -2.12782,2.529 -2.99009,2.6733 -15.97416,2.6733 l -11.80504,0 0,-12.92418 z"
           id="path3130"
           inkscape:connector-curvature="0" />
        <path
           style="fill:#363334"
           d="m 326.88762,711.13414 0,-12.92418 2.72088,0 2.72088,0 0,12.92418 0,12.92418 -2.72088,0 -2.72088,0 0,-12.92418 z"
           id="path3128"
           inkscape:connector-curvature="0" />
        <path
           style="fill:#363334"
           d="m 334.82352,721.33744 0,-2.72088 11.22363,0 c 10.61899,0 11.27249,-0.0489 12.13059,-0.90696 1.09176,-1.09175 1.1095,-1.32295 0.20103,-2.61997 -0.68535,-0.97847 -0.94568,-1.00787 -8.92643,-1.00787 -9.24061,0 -10.93801,-0.42733 -13.05383,-3.28643 -1.62448,-2.19514 -1.80567,-6.36582 -0.36765,-8.46235 1.40066,-2.04206 3.00473,-3.18513 5.17647,-3.68882 0.97836,-0.22691 6.6254,-0.41743 12.54898,-0.42338 l 10.77015,-0.0108 0,2.94762 0,2.94762 -11.30461,0 c -9.67228,0 -11.40751,0.10289 -12.01722,0.71261 -1.00601,1.00601 -0.88436,2.29002 0.29525,3.11625 0.82095,0.57502 2.5113,0.70594 9.11444,0.70594 9.25126,0 10.4921,0.32338 12.42019,3.23693 2.50824,3.7902 1.55618,8.49351 -2.21413,10.93823 l -1.91723,1.24316 -12.03981,0 -12.03982,0 0,-2.72088 z"
           id="path3126"
           inkscape:connector-curvature="0" />
        <path
           style="fill:#363334"
           d="m 371.11533,723.02363 c -0.99028,-0.56088 -2.26569,-1.71006 -2.83425,-2.55374 -0.97352,-1.44461 -1.03374,-1.97523 -1.03374,-9.10901 0,-7.10907 0.0628,-7.66725 1.02033,-9.07421 2.41179,-3.54366 4.22336,-4.05123 14.51136,-4.06589 l 7.59579,-0.0108 0,2.94762 0,2.94762 -8.13025,0 c -9.08533,0 -9.72876,0.1965 -9.46659,2.89113 l 0.13786,1.41693 8.38938,0.0822 8.38938,0.0822 0.13501,2.75206 0.13501,2.75207 -8.63776,0 -8.63776,0 0,1.56146 c 0,2.72096 0.85538,2.97334 10.07746,2.97334 l 8.06174,0 0,2.72088 0,2.72088 -8.95623,-0.007 c -8.44305,-0.007 -9.0594,-0.0659 -10.75674,-1.02724 z"
           id="path3084"
           inkscape:connector-curvature="0" />
      </g>
    </g>
  </g>
</svg>
