<?xml version="1.0" encoding="UTF-8" standalone="no"?>
<!-- Creator: CorelDRAW X6 -->

<svg
   xmlns:dc="http://purl.org/dc/elements/1.1/"
   xmlns:cc="http://creativecommons.org/ns#"
   xmlns:rdf="http://www.w3.org/1999/02/22-rdf-syntax-ns#"
   xmlns:svg="http://www.w3.org/2000/svg"
   xmlns="http://www.w3.org/2000/svg"
   xmlns:sodipodi="http://sodipodi.sourceforge.net/DTD/sodipodi-0.dtd"
   xmlns:inkscape="http://www.inkscape.org/namespaces/inkscape"
   xml:space="preserve"
   width="180"
   height="32.905315"
   version="1.1"
   style="fill-rule:evenodd"
   viewBox="0 0 5080 928.66114"
   id="svg2"
   inkscape:version="0.48.3.1 r9886"
   sodipodi:docname="logo elaborata.svg"><metadata
   id="metadata29"><rdf:RDF><cc:Work
       rdf:about=""><dc:format>image/svg+xml</dc:format><dc:type
         rdf:resource="http://purl.org/dc/dcmitype/StillImage" /><dc:title></dc:title></cc:Work></rdf:RDF></metadata><sodipodi:namedview
   pagecolor="#ffffff"
   bordercolor="#666666"
   borderopacity="1"
   objecttolerance="10"
   gridtolerance="10"
   guidetolerance="10"
   inkscape:pageopacity="0"
   inkscape:pageshadow="2"
   inkscape:window-width="1600"
   inkscape:window-height="876"
   id="namedview27"
   showgrid="false"
   fit-margin-top="0"
   fit-margin-left="0"
   fit-margin-right="0"
   fit-margin-bottom="0"
   inkscape:zoom="0.22425739"
   inkscape:cx="138.04724"
   inkscape:cy="-166.13087"
   inkscape:window-x="0"
   inkscape:window-y="24"
   inkscape:window-maximized="1"
   inkscape:current-layer="svg2" />
 <defs
   id="defs4">
  <style
   type="text/css"
   id="style6">
   
    .str0 {stroke:#36474F;stroke-width:7.62}
    .fil1 {fill:#373435;fill-rule:nonzero}
    .fil3 {fill:#FEFEFE;fill-rule:nonzero}
    .fil0 {fill:#36474F;fill-rule:nonzero}
    .fil2 {fill:url(#id0)}
   
  </style>
  <radialGradient
   id="id0"
   gradientUnits="userSpaceOnUse"
   cx="11019.1"
   cy="12956.2"
   r="1620.03"
   fx="11019.1"
   fy="12956.2">
   <stop
   offset="0"
   style="stop-color:#FEFEFE"
   id="stop9" />
   <stop
   offset="1"
   style="stop-color:#373435"
   id="stop11" />
  </radialGradient>
 </defs>
 <g
   id="Camada_x0020_1"
   transform="matrix(0.3521908,0,0,0.3521908,-1162.9342,-4317.8592)">
  <metadata
   id="CorelCorpID_0Corel-Layer" />
  <path
   class="fil0"
   d="m 3302,13883 0,-1343 1374,0 0,229 -1061,0 0,300 619,0 0,229 -619,0 0,333 1074,0 0,253 -1386,0 z m 1864,0 0,-1100 270,0 0,894 862,0 0,206 -1132,0 z m 1267,0 652,-1100 258,0 662,1100 -301,0 -139,-242 -727,0 -139,242 -268,0 z m 520,-442 504,0 -256,-458 -248,458 z m 1326,442 0,-1100 987,0 c 92,0 159,17 199,50 41,33 61,88 61,163 l 0,132 c 0,50 -16,91 -48,123 -32,33 -79,54 -140,65 62,10 110,33 144,70 34,37 52,83 52,139 l 0,141 c 0,72 -28,126 -85,162 -57,36 -142,54 -256,54 l -914,0 z m 864,-921 -600,0 0,261 600,0 c 46,0 78,-6 95,-18 17,-12 26,-32 26,-61 l 0,-104 c 0,-29 -8,-49 -25,-60 -16,-12 -49,-17 -96,-17 z m 0,442 -600,0 0,281 600,0 c 51,0 85,-7 103,-22 18,-14 27,-39 27,-76 l 0,-84 c 0,-36 -9,-62 -27,-77 -18,-15 -52,-22 -103,-22 z m 1085,268 886,0 0,-687 -886,0 0,687 z m -268,-630 c 0,-100 19,-168 58,-205 39,-36 114,-55 227,-55 l 850,0 c 113,0 189,18 228,55 39,36 58,105 58,205 l 0,581 c 0,101 -19,169 -59,206 -39,36 -115,55 -227,55 l -850,0 c -113,0 -188,-18 -227,-55 -39,-36 -58,-105 -58,-206 l 0,-581 z m 2760,-70 -612,0 0,304 612,0 c 46,0 78,-7 96,-20 17,-13 26,-36 26,-69 l 0,-127 c 0,-32 -9,-55 -26,-69 -17,-13 -49,-20 -96,-20 z m -876,911 0,-1100 990,0 c 91,0 156,17 197,50 41,33 61,88 61,164 l 0,258 c 0,75 -20,128 -61,162 -40,33 -106,49 -197,49 l -151,0 523,417 -385,0 -461,-417 -253,0 0,417 -264,0 z m 1429,0 652,-1100 258,0 662,1100 -301,0 -139,-242 -727,0 -139,242 -268,0 z m 520,-442 504,0 -256,-458 -248,458 z m 1839,-461 0,903 -268,0 0,-903 -531,0 0,-197 1330,0 0,197 -532,0 z m 522,903 652,-1100 258,0 662,1100 -301,0 -139,-242 -727,0 -139,242 -268,0 z m 520,-442 504,0 -256,-458 -248,458 z"
   id="path15"
   inkscape:connector-curvature="0"
   style="fill:#36474f;fill-rule:nonzero" />
  <g
   id="g17">
   <path
   class="fil1"
   d="m 11521,14037 -279,-64 0,0 26,-43 25,-44 23,-45 21,-45 19,-46 18,-46 16,-46 14,-47 12,-47 10,-47 8,-46 7,-46 5,-46 3,-45 1,-45 -1,-44 -3,-44 -5,-43 -7,-42 -9,-41 -11,-40 -13,-38 -15,-37 -17,-36 -18,-34 -20,-32 -22,-31 -24,-29 -26,-27 -28,-25 -29,-23 -31,-21 277,-327 41,28 38,30 36,33 33,35 31,37 28,39 26,41 23,43 21,45 19,47 16,48 14,50 11,51 9,53 6,54 4,55 2,56 -1,57 -3,58 -6,59 -8,60 -11,60 -14,61 -16,61 -19,62 -21,62 -24,63 -27,63 -29,63 -32,63 -35,63 -38,62 0,0 z m -1633,697 277,-327 0,0 32,19 33,16 34,14 34,11 35,9 35,6 36,4 36,2 36,0 36,-2 36,-4 36,-6 36,-8 36,-10 36,-12 36,-14 35,-16 35,-17 35,-19 34,-21 34,-22 33,-24 33,-26 33,-27 32,-29 32,-31 31,-33 31,-35 30,-36 29,-38 28,-40 28,-42 279,64 -40,61 -42,60 -44,58 -46,56 -48,54 -49,52 -50,49 -52,47 -53,45 -54,42 -55,39 -55,37 -56,34 -56,31 -56,28 -57,25 -56,22 -56,19 -56,16 -56,13 -55,10 -54,7 -54,4 -53,0 -52,-3 -51,-6 -50,-9 -48,-12 -47,-15 -46,-18 -44,-22 -43,-25 0,0 z m -72,-1662 279,64 0,0 -26,43 -25,44 -23,45 -21,45 -19,46 -18,46 -16,46 -14,47 -12,47 -10,47 -8,46 -7,46 -5,46 -3,45 -1,45 1,44 3,44 5,43 7,42 9,41 11,40 13,38 15,37 17,36 18,34 20,32 22,31 24,29 26,27 28,25 29,23 31,21 -277,327 -41,-28 -38,-30 -36,-33 -33,-35 -31,-37 -28,-39 -26,-41 -23,-43 -21,-45 -19,-47 -16,-48 -14,-50 -11,-51 -9,-53 -6,-54 -4,-55 -2,-56 1,-57 3,-58 6,-59 8,-60 11,-60 13,-61 16,-61 19,-62 21,-62 24,-63 27,-63 29,-63 32,-63 35,-63 38,-62 0,0 z m 1633,-697 -277,327 0,0 -32,-19 -33,-16 -34,-14 -34,-11 -35,-9 -35,-6 -36,-4 -36,-2 -36,0 -36,2 -36,4 -36,6 -36,8 -36,10 -36,12 -36,14 -35,16 -35,17 -35,19 -34,21 -34,22 -33,24 -33,26 -33,27 -32,29 -32,31 -31,33 -31,35 -30,36 -29,38 -28,40 -28,42 -279,-64 40,-61 42,-60 44,-58 46,-56 48,-54 49,-52 50,-49 52,-47 53,-45 54,-42 55,-39 55,-37 56,-34 56,-31 56,-28 57,-25 56,-22 56,-19 56,-16 56,-13 55,-10 54,-7 54,-4 53,0 52,3 51,6 50,9 48,12 47,15 46,18 44,22 43,25 0,0 z"
   id="path19"
   inkscape:connector-curvature="0"
   style="fill:#373435;fill-rule:nonzero" />
  </g>
  <path
   class="fil2"
   d="m 10541,12404 c 508,0 920,412 920,920 0,508 -412,920 -920,920 -508,0 -920,-412 -920,-920 0,-508 412,-920 920,-920 z"
   id="path21"
   style="fill:url(#id0)"
   inkscape:connector-curvature="0" />
  <path
   class="fil0"
   d="m 3372,14893 0,-537 121,0 0,537 -121,0 z m 1126,0 0,-440 71,0 361,292 0,-292 94,0 0,440 -72,0 -360,-297 0,297 -94,0 z m 1494,0 0,-440 451,0 0,79 -346,0 0,115 186,0 0,82 -186,0 0,165 -105,0 z m 1424,-84 343,0 0,-275 -343,0 0,275 z m -104,-252 c 0,-40 8,-67 23,-82 15,-15 44,-22 88,-22 l 329,0 c 44,0 73,7 88,22 15,15 22,42 22,82 l 0,232 c 0,40 -8,68 -23,82 -15,15 -44,22 -88,22 l -329,0 c -44,0 -73,-7 -88,-22 -15,-15 -23,-42 -23,-82 l 0,-232 z m 1846,-28 -237,0 0,122 237,0 c 18,0 30,-3 37,-8 7,-5 10,-15 10,-27 l 0,-51 c 0,-13 -3,-22 -10,-27 -7,-5 -19,-8 -37,-8 z m -339,364 0,-440 383,0 c 35,0 60,7 76,20 16,13 24,35 24,65 l 0,103 c 0,30 -8,51 -24,65 -16,13 -41,20 -76,20 l -58,0 202,167 -149,0 -178,-167 -98,0 0,167 -102,0 z m 2917,0 252,-440 100,0 256,440 -116,0 -54,-97 -281,0 -54,97 -104,0 z m 201,-177 195,0 -99,-183 -96,183 z m 21,-321 100,-176 109,0 -145,176 -64,0 z m 1523,136 0,361 -104,0 0,-361 -205,0 0,-79 515,0 0,79 -206,0 z m 1118,361 0,-440 103,0 0,440 -103,0 z m 1444,-359 -279,0 0,275 279,0 0,-94 105,22 0,52 c 0,40 -8,67 -23,82 -15,15 -45,22 -88,22 l -266,0 c -43,0 -72,-7 -87,-22 -15,-15 -23,-42 -23,-82 l 0,-232 c 0,-40 8,-67 23,-82 15,-15 44,-22 88,-22 l 266,0 c 44,0 73,7 89,22 15,15 23,42 23,82 l 0,43 -105,16 0,-81 z m 989,359 252,-440 100,0 256,440 -116,0 -54,-97 -281,0 -54,97 -104,0 z m 201,-177 195,0 -99,-183 -96,183 z"
   id="path23"
   inkscape:connector-curvature="0"
   style="fill:#36474f;fill-rule:nonzero" />
  <polygon
   class="fil3 str0"
   points="10751,14453 10834,14453 10834,14893 10738,14893 10738,14590 10548,14840 10528,14840 10336,14597 10336,14893 10253,14893 10253,14453 10336,14453 10544,14714 "
   id="polygon25"
   style="fill:#fefefe;fill-rule:nonzero;stroke:#36474f;stroke-width:7.61999989" />
 </g>
</svg>