<?xml version="1.0" encoding="UTF-8" standalone="no"?>
<!-- Created with Inkscape (http://www.inkscape.org/) -->

<svg
   xmlns:dc="http://purl.org/dc/elements/1.1/"
   xmlns:cc="http://creativecommons.org/ns#"
   xmlns:rdf="http://www.w3.org/1999/02/22-rdf-syntax-ns#"
   xmlns:svg="http://www.w3.org/2000/svg"
   xmlns="http://www.w3.org/2000/svg"
   xmlns:sodipodi="http://sodipodi.sourceforge.net/DTD/sodipodi-0.dtd"
   xmlns:inkscape="http://www.inkscape.org/namespaces/inkscape"
   width="180"
   height="87.548264"
   id="svg4415"
   version="1.1"
   inkscape:version="0.48.3.1 r9886"
   sodipodi:docname="Novo documento 2">
  <defs
     id="defs4417" />
  <sodipodi:namedview
     id="base"
     pagecolor="#ffffff"
     bordercolor="#666666"
     borderopacity="1.0"
     inkscape:pageopacity="0.0"
     inkscape:pageshadow="2"
     inkscape:zoom="0.35"
     inkscape:cx="34.930071"
     inkscape:cy="16.989268"
     inkscape:document-units="px"
     inkscape:current-layer="layer1"
     showgrid="false"
     fit-margin-top="0"
     fit-margin-left="0"
     fit-margin-right="0"
     fit-margin-bottom="0"
     inkscape:window-width="1125"
     inkscape:window-height="650"
     inkscape:window-x="0"
     inkscape:window-y="24"
     inkscape:window-maximized="0" />
  <metadata
     id="metadata4420">
    <rdf:RDF>
      <cc:Work
         rdf:about="">
        <dc:format>image/svg+xml</dc:format>
        <dc:type
           rdf:resource="http://purl.org/dc/dcmitype/StillImage" />
        <dc:title></dc:title>
      </cc:Work>
    </rdf:RDF>
  </metadata>
  <g
     inkscape:label="Camada 1"
     inkscape:groupmode="layer"
     id="layer1"
     transform="translate(-315.06993,-461.80319)">
    <g
       id="g64170"
       transform="matrix(3.1113877,0,0,-3.1059802,82.907513,768.37275)">
      <path
         d="m 74.711,82.867 2.676,0 c -0.039,-0.18 -0.055,-0.324 -0.055,-0.441 0,-0.699 0.453,-1.051 1.356,-1.051 0.953,0 1.507,0.363 1.664,1.09 0.019,0.09 0.027,0.176 0.027,0.254 0,0.328 -0.223,0.554 -0.664,0.679 l -2.223,0.614 c -1.262,0.343 -1.89,1.015 -1.89,2.007 0,0.196 0.023,0.407 0.066,0.629 0.187,0.852 0.652,1.547 1.398,2.09 0.84,0.61 1.938,0.918 3.286,0.918 2.253,0 3.382,-0.73 3.382,-2.183 0,-0.243 -0.035,-0.536 -0.105,-0.879 l -2.703,0 c 0.043,0.175 0.066,0.328 0.066,0.453 0,0.586 -0.347,0.875 -1.039,0.875 -0.383,0 -0.707,-0.094 -0.984,-0.285 -0.274,-0.188 -0.442,-0.43 -0.492,-0.723 -0.016,-0.082 -0.028,-0.156 -0.028,-0.227 0,-0.363 0.262,-0.617 0.785,-0.761 l 1.692,-0.465 c 0.738,-0.203 1.25,-0.406 1.543,-0.613 0.5,-0.336 0.746,-0.825 0.746,-1.465 0,-0.211 -0.027,-0.442 -0.078,-0.692 -0.215,-1.027 -0.785,-1.812 -1.719,-2.355 -0.852,-0.496 -1.91,-0.746 -3.18,-0.746 -1.644,0 -2.726,0.383 -3.25,1.144 -0.25,0.356 -0.371,0.793 -0.371,1.305 0,0.215 0.031,0.488 0.094,0.828 m 9.316,-3.062 2.035,9.582 7.215,0 -0.382,-1.836 -4.583,0 -0.425,-1.996 4.316,0 -0.402,-1.836 -4.313,0 -0.426,-2.051 4.688,0 -0.402,-1.863 -7.321,0 z m 8.774,0 2.035,9.609 3.848,0 c 0.816,0 1.406,-0.031 1.769,-0.094 0.613,-0.113 1.078,-0.343 1.399,-0.691 0.293,-0.317 0.441,-0.707 0.441,-1.156 0,-0.161 -0.02,-0.325 -0.055,-0.493 C 102,85.871 101.16,85.141 99.723,84.797 l -0.012,-0.028 c 1.25,-0.23 1.875,-0.824 1.875,-1.785 0,-0.601 -0.168,-1.152 -0.504,-1.644 -0.34,-0.492 -0.789,-0.871 -1.352,-1.137 -0.566,-0.266 -1.46,-0.398 -2.683,-0.398 l -4.246,0 z m 4.258,7.867 -0.454,-2.129 1.254,0 c 0.469,0 0.789,0.039 0.957,0.117 0.375,0.188 0.606,0.496 0.692,0.934 0.082,0.371 0.019,0.656 -0.184,0.851 -0.16,0.149 -0.433,0.227 -0.812,0.227 l -1.453,0 z m -0.809,-3.836 -0.48,-2.274 1.476,0 c 0.914,0 1.449,0.372 1.609,1.118 0.028,0.113 0.043,0.222 0.043,0.32 0,0.559 -0.418,0.836 -1.253,0.836 l -1.395,0 z m 6.215,-4.031 2.035,9.609 4.445,0 c 0.766,0 1.27,-0.016 1.52,-0.051 0.601,-0.09 1.035,-0.301 1.293,-0.64 0.238,-0.301 0.359,-0.68 0.359,-1.133 0,-0.231 -0.027,-0.473 -0.082,-0.731 -0.176,-0.824 -0.597,-1.418 -1.265,-1.785 -0.434,-0.238 -0.958,-0.402 -1.571,-0.492 l -0.011,-0.051 c 0.691,-0.019 1.16,-0.156 1.41,-0.414 0.214,-0.215 0.32,-0.574 0.32,-1.078 0,-0.168 -0.016,-0.457 -0.039,-0.867 -0.082,-1.188 -0.098,-1.977 -0.055,-2.367 l -2.886,0 c -0.02,0.355 0.031,1.078 0.144,2.168 0.035,0.382 0.055,0.644 0.055,0.785 0,0.293 -0.075,0.5 -0.223,0.621 -0.144,0.117 -0.43,0.18 -0.855,0.18 l -1.121,0 -0.797,-3.754 -2.676,0 z m 4.34,7.839 -0.493,-2.355 0.997,0 c 0.57,0 0.941,0.027 1.121,0.078 0.504,0.152 0.816,0.516 0.929,1.094 0.028,0.121 0.039,0.234 0.039,0.332 0,0.371 -0.175,0.621 -0.531,0.746 -0.215,0.07 -0.566,0.105 -1.066,0.105 l -0.996,0 z m 4.515,-7.839 5.828,9.609 3.25,0 1.758,-9.609 -3.011,0 -0.25,1.929 -3.848,0 -1.067,-1.929 -2.66,0 z m 4.723,3.699 2.609,0 -0.382,4.035 -0.043,0 -2.184,-4.035 z m 7.176,-3.699 2.035,9.582 7.215,0 -0.387,-1.836 -4.578,0 -0.426,-1.996 4.313,0 -0.399,-1.836 -4.312,0 -0.426,-2.051 4.684,0 -0.399,-1.863 -7.32,0 z"
         style="fill:#3564b8;fill-opacity:1;fill-rule:evenodd;stroke:none"
         id="path62942"
         inkscape:connector-curvature="0" />
      <path
         d="m 95.801,94.059 17.906,0 -0.656,-3.098 -17.903,0 0.653,3.098 z"
         style="fill:#3564b8;fill-opacity:1;fill-rule:evenodd;stroke:none"
         id="path62944"
         inkscape:connector-curvature="0" />
      <path
         d="m 96.77,98.703 17.902,0 -0.656,-3.098 -17.903,0 0.657,3.098 z"
         style="fill:#3564b8;fill-opacity:1;fill-rule:evenodd;stroke:none"
         id="path62946"
         inkscape:connector-curvature="0" />
      <path
         d="m 91.512,73.613 17.902,0 -0.652,-3.097 -17.907,0 0.657,3.097 z"
         style="fill:#3564b8;fill-opacity:1;fill-rule:evenodd;stroke:none"
         id="path62948"
         inkscape:connector-curvature="0" />
      <path
         d="m 92.48,78.258 17.903,0 -0.66,-3.098 -17.903,0 0.66,3.098 z"
         style="fill:#3564b8;fill-opacity:1;fill-rule:evenodd;stroke:none"
         id="path62950"
         inkscape:connector-curvature="0" />
    </g>
  </g>
</svg>
