<?xml version="1.0" encoding="UTF-8" standalone="no"?>
<!-- Created with Inkscape (http://www.inkscape.org/) -->

<svg
   xmlns:dc="http://purl.org/dc/elements/1.1/"
   xmlns:cc="http://creativecommons.org/ns#"
   xmlns:rdf="http://www.w3.org/1999/02/22-rdf-syntax-ns#"
   xmlns:svg="http://www.w3.org/2000/svg"
   xmlns="http://www.w3.org/2000/svg"
   xmlns:xlink="http://www.w3.org/1999/xlink"
   xmlns:sodipodi="http://sodipodi.sourceforge.net/DTD/sodipodi-0.dtd"
   xmlns:inkscape="http://www.inkscape.org/namespaces/inkscape"
   width="180"
   height="62.619801"
   id="svg4548"
   version="1.1"
   inkscape:version="0.48.3.1 r9886"
   sodipodi:docname="Novo documento 5">
  <defs
     id="defs4550">
    <clipPath
       clipPathUnits="userSpaceOnUse"
       id="clipPath62788">
      <path
         inkscape:connector-curvature="0"
         d="m 192.527,91.93 2.532,-2.528 10.078,0 2.527,2.528 2.531,-2.528 0,3.575 -3.578,0 -6.519,6.523 -7.571,-7.57 z"
         id="path62790" />
    </clipPath>
    <clipPath
       clipPathUnits="userSpaceOnUse"
       id="clipPath62796">
      <path
         inkscape:connector-curvature="0"
         d="M 0,0 309,0 309,437 0,437 0,0 z"
         id="path62798" />
    </clipPath>
    <linearGradient
       inkscape:collect="always"
       xlink:href="#linearGradient62800"
       id="linearGradient5886"
       gradientUnits="userSpaceOnUse"
       gradientTransform="matrix(-4.564697,-12.541406,-14.578392,5.3061,203.46864,100.70063)"
       spreadMethod="pad"
       x1="0"
       y1="0"
       x2="1"
       y2="0" />
    <linearGradient
       x1="0"
       y1="0"
       x2="1"
       y2="0"
       gradientUnits="userSpaceOnUse"
       gradientTransform="matrix(-4.564697,-12.541406,-14.578392,5.3061,203.46864,100.70063)"
       spreadMethod="pad"
       id="linearGradient62800">
      <stop
         style="stop-opacity:1;stop-color:#00a770"
         offset="0"
         id="stop62802" />
      <stop
         style="stop-opacity:1;stop-color:#0b6b43"
         offset="0.85"
         id="stop62804" />
      <stop
         style="stop-opacity:1;stop-color:#0f3c24"
         offset="1"
         id="stop62806" />
    </linearGradient>
    <linearGradient
       inkscape:collect="always"
       xlink:href="#linearGradient62822"
       id="linearGradient5888"
       gradientUnits="userSpaceOnUse"
       gradientTransform="matrix(15.028605,17.910391,17.657059,-14.816032,187.54253,71.613931)"
       spreadMethod="pad"
       x1="0"
       y1="0"
       x2="1"
       y2="0" />
    <linearGradient
       x1="0"
       y1="0"
       x2="1"
       y2="0"
       gradientUnits="userSpaceOnUse"
       gradientTransform="matrix(15.028605,17.910391,17.657059,-14.816032,187.54253,71.613931)"
       spreadMethod="pad"
       id="linearGradient62822">
      <stop
         style="stop-opacity:1;stop-color:#00a770"
         offset="0"
         id="stop62824" />
      <stop
         style="stop-opacity:1;stop-color:#0b6b43"
         offset="0.82"
         id="stop62826" />
      <stop
         style="stop-opacity:1;stop-color:#0f3c24"
         offset="1"
         id="stop62828" />
    </linearGradient>
    <linearGradient
       inkscape:collect="always"
       xlink:href="#linearGradient62834"
       id="linearGradient5890"
       gradientUnits="userSpaceOnUse"
       gradientTransform="matrix(15.610991,-9.013009,-8.060097,-13.960496,194.81987,91.388307)"
       spreadMethod="pad"
       x1="0"
       y1="0"
       x2="1"
       y2="0" />
    <linearGradient
       x1="0"
       y1="0"
       x2="1"
       y2="0"
       gradientUnits="userSpaceOnUse"
       gradientTransform="matrix(15.610991,-9.013009,-8.060097,-13.960496,194.81987,91.388307)"
       spreadMethod="pad"
       id="linearGradient62834">
      <stop
         style="stop-opacity:1;stop-color:#00a770"
         offset="0"
         id="stop62836" />
      <stop
         style="stop-opacity:1;stop-color:#0b6b43"
         offset="0.78"
         id="stop62838" />
      <stop
         style="stop-opacity:1;stop-color:#0f3c24"
         offset="1"
         id="stop62840" />
    </linearGradient>
    <linearGradient
       inkscape:collect="always"
       xlink:href="#linearGradient62800"
       id="linearGradient4793"
       gradientUnits="userSpaceOnUse"
       gradientTransform="matrix(-4.564697,-12.541406,-14.578392,5.3061,203.46864,100.70063)"
       spreadMethod="pad"
       x1="0"
       y1="0"
       x2="1"
       y2="0" />
    <linearGradient
       inkscape:collect="always"
       xlink:href="#linearGradient62822"
       id="linearGradient4795"
       gradientUnits="userSpaceOnUse"
       gradientTransform="matrix(15.028605,17.910391,17.657059,-14.816032,187.54253,71.613931)"
       spreadMethod="pad"
       x1="0"
       y1="0"
       x2="1"
       y2="0" />
    <linearGradient
       inkscape:collect="always"
       xlink:href="#linearGradient62834"
       id="linearGradient4797"
       gradientUnits="userSpaceOnUse"
       gradientTransform="matrix(15.610991,-9.013009,-8.060097,-13.960496,194.81987,91.388307)"
       spreadMethod="pad"
       x1="0"
       y1="0"
       x2="1"
       y2="0" />
    <linearGradient
       inkscape:collect="always"
       xlink:href="#linearGradient62800"
       id="linearGradient4861"
       gradientUnits="userSpaceOnUse"
       gradientTransform="matrix(-4.564697,-12.541406,-14.578392,5.3061,203.46864,100.70063)"
       spreadMethod="pad"
       x1="0"
       y1="0"
       x2="1"
       y2="0" />
    <linearGradient
       inkscape:collect="always"
       xlink:href="#linearGradient62822"
       id="linearGradient4863"
       gradientUnits="userSpaceOnUse"
       gradientTransform="matrix(15.028605,17.910391,17.657059,-14.816032,187.54253,71.613931)"
       spreadMethod="pad"
       x1="0"
       y1="0"
       x2="1"
       y2="0" />
    <linearGradient
       inkscape:collect="always"
       xlink:href="#linearGradient62834"
       id="linearGradient4865"
       gradientUnits="userSpaceOnUse"
       gradientTransform="matrix(15.610991,-9.013009,-8.060097,-13.960496,194.81987,91.388307)"
       spreadMethod="pad"
       x1="0"
       y1="0"
       x2="1"
       y2="0" />
  </defs>
  <sodipodi:namedview
     id="base"
     pagecolor="#ffffff"
     bordercolor="#666666"
     borderopacity="1.0"
     inkscape:pageopacity="0.0"
     inkscape:pageshadow="2"
     inkscape:zoom="2.8"
     inkscape:cx="86.292305"
     inkscape:cy="-37.876925"
     inkscape:document-units="px"
     inkscape:current-layer="layer1"
     showgrid="false"
     fit-margin-top="0"
     fit-margin-left="0"
     fit-margin-right="0"
     fit-margin-bottom="0"
     inkscape:window-width="1600"
     inkscape:window-height="876"
     inkscape:window-x="0"
     inkscape:window-y="24"
     inkscape:window-maximized="1" />
  <metadata
     id="metadata4553">
    <rdf:RDF>
      <cc:Work
         rdf:about="">
        <dc:format>image/svg+xml</dc:format>
        <dc:type
           rdf:resource="http://purl.org/dc/dcmitype/StillImage" />
        <dc:title></dc:title>
      </cc:Work>
    </rdf:RDF>
  </metadata>
  <g
     inkscape:label="Camada 1"
     inkscape:groupmode="layer"
     id="layer1"
     transform="translate(-309.98302,-476.47788)">
    <g
       id="g4799"
       transform="matrix(1.1063329,0,0,1.1063329,-32.961401,-57.323833)">
      <g
         transform="matrix(0.75189692,0,0,0.75189692,104.26595,126.23283)"
         id="g4778">
        <g
           id="g62784"
           transform="matrix(2.7158743,0,0,-2.7111542,-80.880145,743.57963)">
          <g
             id="g62786"
             clip-path="url(#clipPath62788)">
            <g
               id="g62792"
               transform="translate(0,-0.460999)">
              <g
                 id="g62794" />
              <g
                 id="g62808">
                <g
                   clip-path="url(#clipPath62796)"
                   id="g62810">
                  <g
                     id="g62812">
                    <g
                       id="g62814">
                      <path
                         d="m 192.527,92.391 2.532,-2.528 10.078,0 2.527,2.528 2.531,-2.528 0,3.575 -3.578,0 -6.519,6.523 -7.571,-7.57 z"
                         style="fill:url(#linearGradient4861);fill-opacity:1;fill-rule:nonzero;stroke:none"
                         id="path62816"
                         inkscape:connector-curvature="0" />
                    </g>
                  </g>
                </g>
              </g>
            </g>
          </g>
        </g>
        <g
           id="g62820"
           transform="matrix(2.7158743,0,0,-2.7111542,-80.880145,743.57963)">
          <path
             inkscape:connector-curvature="0"
             id="path62830"
             style="fill:url(#linearGradient4863);fill-opacity:1;fill-rule:nonzero;stroke:none"
             d="m 187.488,81.832 5.039,-5.039 0,-5.059 10.098,10.098 -7.566,7.57 -7.571,-7.57 z" />
        </g>
        <g
           id="g62832"
           transform="matrix(2.7158743,0,0,-2.7111542,-80.880145,743.57963)">
          <path
             inkscape:connector-curvature="0"
             id="path62842"
             style="fill:url(#linearGradient4865);fill-opacity:1;fill-rule:nonzero;stroke:none"
             d="m 205.137,89.402 -10.078,0 7.566,-7.57 7.57,7.57 -2.531,2.528 -2.527,-2.528 z" />
        </g>
      </g>
      <path
         d="m 329.95831,515.58783 c -0.71971,0.66694 -1.75989,1.04922 -3.03363,1.04922 l -10.66253,0 0,-6.927 10.66253,0 c 1.30633,0 2.28133,0.42565 3.03363,1.17664 0.58391,0.63441 0.96685,1.42878 0.96685,2.30719 0,0.88112 -0.38294,1.75954 -0.96685,2.39395 m -13.69616,-16.39435 9.6658,0 c 1.33621,0 2.14283,0.28738 2.72674,0.92179 0.50787,0.49885 0.8392,1.1658 0.8392,1.97101 0,0.83504 -0.33133,1.6294 -0.92339,2.22315 -0.63823,0.62627 -1.50731,0.87841 -2.64255,0.87841 l -9.6658,0 0,-5.99436 z m 16.01008,7.25505 c 2.00432,-1.04922 3.4383,-3.14494 3.4383,-5.49551 0,-1.5562 -0.62737,-2.98769 -1.71915,-4.11011 -1.50731,-1.59958 -3.94616,-2.64609 -7.35187,-2.64609 l -16.42289,0 0,27.38537 16.93076,0 c 3.73433,0 5.79296,-0.87841 7.46865,-2.47799 1.73001,-1.67279 2.56922,-3.68446 2.56922,-5.86694 0,-3.18832 -1.71915,-5.70698 -4.91302,-6.78873"
         style="fill:#006c51;fill-opacity:1;fill-rule:nonzero;stroke:none"
         id="path62844"
         inkscape:connector-curvature="0" />
      <path
         d="m 355.17792,506.43768 -9.83418,0 0,-7.16829 9.40778,0 c 1.0945,0 2.31393,0.12743 3.27806,1.17393 0.62737,0.63712 0.96686,1.47216 0.96686,2.39395 0,2.09843 -1.71915,3.60041 -3.81852,3.60041 m 9.86405,-3.60041 c 0,-2.18248 -0.83649,-4.15078 -2.25961,-5.66631 -1.77075,-1.84088 -4.32638,-2.97414 -8.24267,-2.97414 l -15.20075,0 0,27.38537 6.0048,0 0,-10.06109 8.15577,0 5.53766,10.06109 6.89832,0 -6.43119,-11.02355 c 3.36497,-1.47216 5.53767,-4.205 5.53767,-7.72137"
         style="fill:#006c51;fill-opacity:1;fill-rule:nonzero;stroke:none"
         id="path62846"
         inkscape:connector-curvature="0" />
      <path
         d="m 386.54626,514.45457 c -1.43126,1.26068 -2.73488,1.97101 -5.87715,1.97101 l -6.68376,0 0,-17.02876 6.68376,0 c 3.23733,0 4.70118,0.80521 6.09171,2.17976 1.50459,1.55892 2.31121,3.73869 2.31121,6.33326 0,2.76538 -0.9234,4.94515 -2.52577,6.54473 m -5.66531,-20.25775 -12.9004,0 0,27.38537 12.9004,0 c 5.15745,0 8.14762,-1.3854 10.49414,-3.61126 2.5665,-2.51053 3.94616,-6.12178 3.94616,-10.10176 0,-3.85526 -1.29547,-7.29842 -3.69358,-9.76557 -2.43886,-2.478 -5.70606,-3.90678 -10.74672,-3.90678"
         style="fill:#006c51;fill-opacity:1;fill-rule:nonzero;stroke:none"
         id="path62848"
         inkscape:connector-curvature="0" />
      <path
         d="m 404.10439,516.42558 0,-6.54473 10.12207,0 0,-5.15933 -10.12207,0 0,-5.3247 16.84657,0 0,-5.2 -22.86223,0 0,27.38537 23.81822,0 0,-5.15661 -17.80256,0 z"
         style="fill:#006c51;fill-opacity:1;fill-rule:nonzero;stroke:none"
         id="path62850"
         inkscape:connector-curvature="0" />
      <path
         d="m 311.81898,526.96383 -1.12437,0 0,1.41794 1.12437,0 c 0.48615,0 0.76316,-0.29552 0.76316,-0.71033 0,-0.41209 -0.27701,-0.70761 -0.76316,-0.70761 m -0.0652,-1.98185 -1.05919,0 0,1.34473 1.05919,0 c 0.44541,0 0.75502,-0.244 0.75502,-0.67779 0,-0.42294 -0.30961,-0.66694 -0.75502,-0.66694 m 0.12765,4.0342 -1.8984,0 0,-4.66861 1.82507,0 c 0.86908,0 1.40954,0.49614 1.40954,1.27966 0,0.5097 -0.30689,0.87028 -0.62465,0.99771 0.36121,0.13556 0.70069,0.48529 0.70069,1.07904 0,0.85672 -0.58391,1.3122 -1.41225,1.3122"
         style="fill:#231f20;fill-opacity:1;fill-rule:nonzero;stroke:none"
         id="path62852"
         inkscape:connector-curvature="0" />
      <path
         d="m 315.4148,525.40492 -0.73328,2.07674 1.44484,0 -0.71156,-2.07674 z m 1.23029,3.61126 -0.32862,-0.92993 -1.84679,0 -0.31776,0.92993 -0.7523,0 1.70829,-4.66861 0.57305,0 1.71643,4.66861 -0.7523,0 z"
         style="fill:#231f20;fill-opacity:1;fill-rule:nonzero;stroke:none"
         id="path62854"
         inkscape:connector-curvature="0" />
      <path
         d="m 320.53966,529.01618 -2.16456,-3.28321 0,3.28321 -0.71155,0 0,-4.66861 0.65724,0 2.15368,3.28321 0,-3.28321 0.72243,0 0,4.66861 -0.65724,0 z"
         style="fill:#231f20;fill-opacity:1;fill-rule:nonzero;stroke:none"
         id="path62856"
         inkscape:connector-curvature="0" />
      <path
         d="m 323.52983,529.05955 c -0.48614,0 -0.90167,-0.17893 -1.21942,-0.49885 -0.46713,-0.45547 -0.45627,-0.9733 -0.45627,-1.87341 0,-0.9001 -0.0109,-1.41793 0.45627,-1.8734 0.31775,-0.32805 0.73328,-0.49886 1.21942,-0.49886 0.86094,0 1.50731,0.49886 1.6757,1.42878 l -0.73057,0 c -0.10592,-0.46361 -0.42368,-0.79437 -0.94513,-0.79437 -0.2743,0 -0.51873,0.10574 -0.68983,0.27654 -0.23356,0.25485 -0.2743,0.51783 -0.2743,1.46131 0,0.93264 0.0407,1.20647 0.2743,1.45047 0.1711,0.18165 0.41553,0.28738 0.68983,0.28738 0.52145,0 0.85007,-0.32805 0.95599,-0.80521 l 0.71971,0 c -0.15752,0.93264 -0.82563,1.43962 -1.6757,1.43962"
         style="fill:#231f20;fill-opacity:1;fill-rule:nonzero;stroke:none"
         id="path62858"
         inkscape:connector-curvature="0" />
      <path
         d="m 327.96486,525.23683 c -0.16024,-0.18165 -0.42368,-0.28739 -0.7007,-0.28739 -0.2743,0 -0.52959,0.10574 -0.68983,0.28739 -0.23357,0.244 -0.28517,0.50698 -0.28517,1.45046 0,0.93264 0.0516,1.19562 0.28517,1.45047 0.16024,0.18165 0.41553,0.28738 0.68983,0.28738 0.27702,0 0.54046,-0.10573 0.7007,-0.28738 0.23356,-0.25485 0.27702,-0.51783 0.27702,-1.45047 0,-0.94348 -0.0435,-1.20646 -0.27702,-1.45046 m 0.54046,3.32387 c -0.32863,0.31992 -0.74144,0.49885 -1.24116,0.49885 -0.497,0 -0.90167,-0.17893 -1.23029,-0.49885 -0.45627,-0.45547 -0.4454,-0.9733 -0.4454,-1.87341 0,-0.9001 -0.0109,-1.41793 0.4454,-1.8734 0.32862,-0.32805 0.73329,-0.5097 1.23029,-0.5097 0.49972,0 0.91253,0.18165 1.24116,0.5097 0.45626,0.45547 0.4454,0.9733 0.4454,1.8734 0,0.90011 0.0109,1.41794 -0.4454,1.87341"
         style="fill:#231f20;fill-opacity:1;fill-rule:nonzero;stroke:none"
         id="path62860"
         inkscape:connector-curvature="0" />
      <path
         d="m 332.5574,524.98198 -1.04833,0 0,1.47215 1.04833,0 c 0.46713,0 0.79575,-0.27382 0.79575,-0.7293 0,-0.45547 -0.32862,-0.74285 -0.79575,-0.74285 m 0.81748,4.0342 -0.98586,-1.9683 -0.87995,0 0,1.9683 -0.72242,0 0,-4.66861 1.8142,0 c 0.89081,0 1.453,0.57205 1.453,1.36642 0,0.66694 -0.40195,1.10073 -0.9234,1.239 l 1.07277,2.06319 -0.82834,0 z"
         style="fill:#231f20;fill-opacity:1;fill-rule:nonzero;stroke:none"
         id="path62862"
         inkscape:connector-curvature="0" />
      <path
         d="m 334.70294,529.01618 0,-4.66861 2.99018,0 0,0.63441 -2.28134,0 0,1.36642 1.95272,0 0,0.63441 -1.95272,0 0,1.39896 2.28134,0 0,0.63441 -2.99018,0 z"
         style="fill:#231f20;fill-opacity:1;fill-rule:nonzero;stroke:none"
         id="path62864"
         inkscape:connector-curvature="0" />
      <path
         d="m 341.0771,528.53088 c -0.36121,0.36872 -0.79575,0.52867 -1.29276,0.52867 -0.47799,0 -0.90167,-0.17893 -1.23029,-0.49885 -0.45627,-0.45547 -0.44812,-0.9733 -0.44812,-1.87341 0,-0.9001 -0.008,-1.41793 0.44812,-1.8734 0.32862,-0.32805 0.73057,-0.49886 1.23029,-0.49886 0.99673,0 1.56978,0.64526 1.70829,1.45047 l -0.72243,0 c -0.11678,-0.51783 -0.45626,-0.81606 -0.98586,-0.81606 -0.27702,0 -0.52145,0.10574 -0.68983,0.28739 -0.2227,0.244 -0.27702,0.50698 -0.27702,1.45046 0,0.93264 0.0543,1.20647 0.27702,1.45047 0.16838,0.18165 0.41281,0.28738 0.68983,0.28738 0.30689,0 0.5812,-0.11658 0.76316,-0.32805 0.16839,-0.19249 0.24443,-0.43649 0.24443,-0.73201 l 0,-0.26569 -1.00759,0 0,-0.60188 1.70829,0 0,0.70761 c 0,0.60459 -0.10864,0.99771 -0.41553,1.32576"
         style="fill:#231f20;fill-opacity:1;fill-rule:nonzero;stroke:none"
         id="path62866"
         inkscape:connector-curvature="0" />
      <path
         d="m 342.14987,524.34757 0.71156,0 0,4.67132 -0.71156,0 0,-4.67132 z"
         style="fill:#231f20;fill-opacity:1;fill-rule:nonzero;stroke:none"
         id="path62868"
         inkscape:connector-curvature="0" />
      <path
         d="m 345.89506,525.23683 c -0.16024,-0.18165 -0.42639,-0.28739 -0.68983,-0.28739 -0.28789,0 -0.54046,0.10574 -0.7007,0.28739 -0.23356,0.244 -0.27702,0.50698 -0.27702,1.45046 0,0.93264 0.0435,1.19562 0.27702,1.45047 0.16024,0.18165 0.41281,0.28738 0.7007,0.28738 0.26344,0 0.52959,-0.10573 0.68983,-0.28738 0.23356,-0.25485 0.2743,-0.51783 0.2743,-1.45047 0,-0.94348 -0.0407,-1.20646 -0.2743,-1.45046 m 0.54046,3.32387 c -0.31776,0.31992 -0.73329,0.49885 -1.23029,0.49885 -0.49972,0 -0.91254,-0.17893 -1.23029,-0.49885 -0.46714,-0.45547 -0.45627,-0.9733 -0.45627,-1.87341 0,-0.9001 -0.0109,-1.41793 0.45627,-1.8734 0.31775,-0.32805 0.73057,-0.5097 1.23029,-0.5097 0.497,0 0.91253,0.18165 1.23029,0.5097 0.45626,0.45547 0.4454,0.9733 0.4454,1.8734 0,0.90011 0.0109,1.41794 -0.4454,1.87341"
         style="fill:#231f20;fill-opacity:1;fill-rule:nonzero;stroke:none"
         id="path62870"
         inkscape:connector-curvature="0" />
      <path
         d="m 350.41427,529.01618 -2.16455,-3.28321 0,3.28321 -0.71156,0 0,-4.66861 0.64638,0 2.16455,3.28321 0,-3.28321 0.71156,0 0,4.66861 -0.64638,0 z"
         style="fill:#231f20;fill-opacity:1;fill-rule:nonzero;stroke:none"
         id="path62872"
         inkscape:connector-curvature="0" />
      <path
         d="m 353.35285,525.40492 -0.73329,2.07674 1.44213,0 -0.70884,-2.07674 z m 1.23029,3.61126 -0.31776,-0.92993 -1.85766,0 -0.31775,0.92993 -0.7523,0 1.71643,-4.66861 0.56219,0 1.71915,4.66861 -0.7523,0 z"
         style="fill:#231f20;fill-opacity:1;fill-rule:nonzero;stroke:none"
         id="path62874"
         inkscape:connector-curvature="0" />
      <path
         d="m 355.61246,529.01618 0,-4.66861 0.70884,0 0,4.0342 2.25146,0 0,0.63441 -2.9603,0 z"
         style="fill:#231f20;fill-opacity:1;fill-rule:nonzero;stroke:none"
         id="path62876"
         inkscape:connector-curvature="0" />
      <path
         d="m 362.54065,525.29918 c -0.20369,-0.21147 -0.45626,-0.3172 -0.79575,-0.3172 l -0.86093,0 0,3.39979 0.86093,0 c 0.33949,0 0.59206,-0.0949 0.79575,-0.30637 0.24171,-0.27653 0.24171,-0.77267 0.24171,-1.42064 0,-0.64525 0,-1.07904 -0.24171,-1.35558 m 0.48614,3.28321 c -0.29603,0.29823 -0.7197,0.43379 -1.20856,0.43379 l -1.64582,0 0,-4.66861 1.64582,0 c 0.48886,0 0.91253,0.1464 1.20856,0.44463 0.49972,0.49614 0.46713,1.18477 0.46713,1.86256 0,0.67779 0.0326,1.42064 -0.46713,1.92763"
         style="fill:#231f20;fill-opacity:1;fill-rule:nonzero;stroke:none"
         id="path62878"
         inkscape:connector-curvature="0" />
      <path
         d="m 364.15117,529.01618 0,-4.66861 2.99289,0 0,0.63441 -2.28134,0 0,1.36642 1.95272,0 0,0.63441 -1.95272,0 0,1.39896 2.28134,0 0,0.63441 -2.99289,0 z"
         style="fill:#231f20;fill-opacity:1;fill-rule:nonzero;stroke:none"
         id="path62880"
         inkscape:connector-curvature="0" />
      <path
         d="m 371.28034,525.29918 c -0.20098,-0.21147 -0.46713,-0.3172 -0.79576,-0.3172 l -0.86908,0 0,3.39979 0.86908,0 c 0.32863,0 0.59478,-0.0949 0.79576,-0.30637 0.23356,-0.27653 0.24442,-0.77267 0.24442,-1.42064 0,-0.64525 -0.0109,-1.07904 -0.24442,-1.35558 m 0.47799,3.28321 c -0.28517,0.29823 -0.72242,0.43379 -1.1977,0.43379 l -1.64582,0 0,-4.66861 1.64582,0 c 0.47528,0 0.91253,0.1464 1.1977,0.44463 0.51058,0.49614 0.47799,1.18477 0.47799,1.86256 0,0.67779 0.0326,1.42064 -0.47799,1.92763"
         style="fill:#231f20;fill-opacity:1;fill-rule:nonzero;stroke:none"
         id="path62882"
         inkscape:connector-curvature="0" />
      <path
         d="m 372.89356,529.01618 0,-4.66861 2.9929,0 0,0.63441 -2.28134,0 0,1.36642 1.95,0 0,0.63441 -1.95,0 0,1.39896 2.28134,0 0,0.63441 -2.9929,0 z"
         style="fill:#231f20;fill-opacity:1;fill-rule:nonzero;stroke:none"
         id="path62884"
         inkscape:connector-curvature="0" />
      <path
         d="m 377.70881,529.05955 c -0.70884,0 -1.20856,-0.16809 -1.65397,-0.61543 l 0.46713,-0.46361 c 0.33949,0.3389 0.72243,0.44463 1.1977,0.44463 0.61651,0 0.96685,-0.26569 0.96685,-0.71032 0,-0.21147 -0.0543,-0.38227 -0.18196,-0.48801 -0.11678,-0.11658 -0.23356,-0.15724 -0.51873,-0.20062 l -0.55132,-0.0732 c -0.38294,-0.0542 -0.67897,-0.19249 -0.87995,-0.38228 -0.23356,-0.21147 -0.35034,-0.50698 -0.35034,-0.88925 0,-0.81606 0.59477,-1.36643 1.56977,-1.36643 0.61379,0 1.05104,0.14912 1.45299,0.52868 l -0.45626,0.44463 c -0.28517,-0.27383 -0.62465,-0.35787 -1.01846,-0.35787 -0.55132,0 -0.84735,0.3172 -0.84735,0.7293 0,0.1708 0.0516,0.3172 0.16839,0.43378 0.11678,0.0949 0.30689,0.18165 0.52959,0.21147 l 0.53231,0.0759 c 0.43454,0.0732 0.67897,0.1681 0.86908,0.34974 0.25529,0.22232 0.38294,0.56121 0.38294,0.96246 0,0.85944 -0.7007,1.36642 -1.67841,1.36642"
         style="fill:#231f20;fill-opacity:1;fill-rule:nonzero;stroke:none"
         id="path62886"
         inkscape:connector-curvature="0" />
      <path
         d="m 379.94941,529.01618 0,-4.66861 2.99017,0 0,0.63441 -2.28133,0 0,1.36642 1.95271,0 0,0.63441 -1.95271,0 0,1.39896 2.28133,0 0,0.63441 -2.99017,0 z"
         style="fill:#231f20;fill-opacity:1;fill-rule:nonzero;stroke:none"
         id="path62888"
         inkscape:connector-curvature="0" />
      <path
         d="m 386.38874,529.01618 -2.15368,-3.28321 0,3.28321 -0.71156,0 0,-4.66861 0.64637,0 2.16456,3.28321 0,-3.28321 0.71156,0 0,4.66861 -0.65725,0 z"
         style="fill:#231f20;fill-opacity:1;fill-rule:nonzero;stroke:none"
         id="path62890"
         inkscape:connector-curvature="0" />
      <path
         d="m 389.38979,529.01618 -0.55133,0 -1.53718,-4.66861 0.73057,0 1.08363,3.39979 1.07006,-3.39979 0.75501,0 -1.55076,4.66861 z"
         style="fill:#231f20;fill-opacity:1;fill-rule:nonzero;stroke:none"
         id="path62892"
         inkscape:connector-curvature="0" />
      <path
         d="m 393.32509,525.23683 c -0.15752,-0.18165 -0.41282,-0.28739 -0.68712,-0.28739 -0.27702,0 -0.53231,0.10574 -0.70069,0.28739 -0.23357,0.244 -0.27702,0.50698 -0.27702,1.45046 0,0.93264 0.0435,1.19562 0.27702,1.45047 0.16838,0.18165 0.42367,0.28738 0.70069,0.28738 0.2743,0 0.5296,-0.10573 0.68712,-0.28738 0.23356,-0.25485 0.28788,-0.51783 0.28788,-1.45047 0,-0.94348 -0.0543,-1.20646 -0.28788,-1.45046 m 0.54317,3.32387 c -0.31776,0.31992 -0.73328,0.49885 -1.23029,0.49885 -0.49972,0 -0.91253,-0.17893 -1.23301,-0.49885 -0.45626,-0.45547 -0.45626,-0.9733 -0.45626,-1.87341 0,-0.9001 0,-1.41793 0.45626,-1.8734 0.32048,-0.32805 0.73329,-0.5097 1.23301,-0.5097 0.49701,0 0.91253,0.18165 1.23029,0.5097 0.46713,0.45547 0.44541,0.9733 0.44541,1.8734 0,0.90011 0.0217,1.41794 -0.44541,1.87341"
         style="fill:#231f20;fill-opacity:1;fill-rule:nonzero;stroke:none"
         id="path62894"
         inkscape:connector-curvature="0" />
      <path
         d="m 394.98177,529.01618 0,-4.66861 0.71156,0 0,4.0342 2.24874,0 0,0.63441 -2.9603,0 z"
         style="fill:#231f20;fill-opacity:1;fill-rule:nonzero;stroke:none"
         id="path62896"
         inkscape:connector-curvature="0" />
      <path
         d="m 399.40593,529.01618 -0.55132,0 -1.5399,-4.66861 0.73328,0 1.08092,3.39979 1.08363,-3.39979 0.74144,0 -1.54805,4.66861 z"
         style="fill:#231f20;fill-opacity:1;fill-rule:nonzero;stroke:none"
         id="path62898"
         inkscape:connector-curvature="0" />
      <path
         d="m 401.20927,524.34757 0.71156,0 0,4.67132 -0.71156,0 0,-4.67132 z"
         style="fill:#231f20;fill-opacity:1;fill-rule:nonzero;stroke:none"
         id="path62900"
         inkscape:connector-curvature="0" />
      <path
         d="m 406.16302,529.01618 0,-3.12325 -1.07005,2.28821 -0.53231,0 -1.10265,-2.28821 0,3.12325 -0.71155,0 0,-4.66861 0.71155,0 1.3688,2.91178 1.33621,-2.91178 0.71156,0 0,4.66861 -0.71156,0 z"
         style="fill:#231f20;fill-opacity:1;fill-rule:nonzero;stroke:none"
         id="path62902"
         inkscape:connector-curvature="0" />
      <path
         d="m 407.70021,529.01618 0,-4.66861 2.99289,0 0,0.63441 -2.28133,0 0,1.36642 1.94185,0 0,0.63441 -1.94185,0 0,1.39896 2.28133,0 0,0.63441 -2.99289,0 z"
         style="fill:#231f20;fill-opacity:1;fill-rule:nonzero;stroke:none"
         id="path62904"
         inkscape:connector-curvature="0" />
      <path
         d="m 414.14226,529.01618 -2.16455,-3.28321 0,3.28321 -0.71156,0 0,-4.66861 0.65724,0 2.15369,3.28321 0,-3.28321 0.72243,0 0,4.66861 -0.65725,0 z"
         style="fill:#231f20;fill-opacity:1;fill-rule:nonzero;stroke:none"
         id="path62906"
         inkscape:connector-curvature="0" />
      <path
         d="m 417.20577,524.98198 0,4.0342 -0.70884,0 0,-4.0342 -1.28461,0 0,-0.63441 3.27806,0 0,0.63441 -1.28461,0 z"
         style="fill:#231f20;fill-opacity:1;fill-rule:nonzero;stroke:none"
         id="path62908"
         inkscape:connector-curvature="0" />
      <path
         d="m 420.98355,525.23683 c -0.16024,-0.18165 -0.41281,-0.28739 -0.68983,-0.28739 -0.2743,0 -0.5296,0.10574 -0.7007,0.28739 -0.23356,0.244 -0.2743,0.50698 -0.2743,1.45046 0,0.93264 0.0407,1.19562 0.2743,1.45047 0.1711,0.18165 0.4264,0.28738 0.7007,0.28738 0.27702,0 0.52959,-0.10573 0.68983,-0.28738 0.23357,-0.25485 0.27702,-0.51783 0.27702,-1.45047 0,-0.94348 -0.0434,-1.20646 -0.27702,-1.45046 m 0.54046,3.32387 c -0.31776,0.31992 -0.73057,0.49885 -1.23029,0.49885 -0.49701,0 -0.91253,-0.17893 -1.23029,-0.49885 -0.45627,-0.45547 -0.45627,-0.9733 -0.45627,-1.87341 0,-0.9001 0,-1.41793 0.45627,-1.8734 0.31776,-0.32805 0.73328,-0.5097 1.23029,-0.5097 0.49972,0 0.91253,0.18165 1.23029,0.5097 0.46713,0.45547 0.4454,0.9733 0.4454,1.8734 0,0.90011 0.0217,1.41794 -0.4454,1.87341"
         style="fill:#231f20;fill-opacity:1;fill-rule:nonzero;stroke:none"
         id="path62910"
         inkscape:connector-curvature="0" />
      <path
         d="m 312.34858,531.3803 c -0.19011,-0.22502 -0.45627,-0.31991 -0.79575,-0.31991 l -0.85822,0 0,3.39978 0.85822,0 c 0.33948,0 0.60564,-0.10573 0.79575,-0.3172 0.24443,-0.2657 0.25529,-0.77268 0.25529,-1.41794 0,-0.64796 -0.0109,-1.08175 -0.25529,-1.34473 m 0.48886,3.27237 c -0.29875,0.29551 -0.72243,0.44462 -1.21128,0.44462 l -1.64311,0 0,-4.67131 1.64311,0 c 0.48885,0 0.91253,0.13826 1.21128,0.43378 0.50786,0.5097 0.47799,1.18749 0.47799,1.86527 0,0.67779 0.0299,1.42878 -0.47799,1.92764"
         style="fill:#231f20;fill-opacity:1;fill-rule:nonzero;stroke:none"
         id="path62912"
         inkscape:connector-curvature="0" />
      <path
         d="m 316.17796,531.30439 c -0.15752,-0.16809 -0.42367,-0.28467 -0.68983,-0.28467 -0.2743,0 -0.54046,0.11658 -0.69798,0.28467 -0.23357,0.25485 -0.27702,0.52054 -0.27702,1.45047 0,0.94348 0.0435,1.20917 0.27702,1.45046 0.15752,0.18165 0.42368,0.28739 0.69798,0.28739 0.26616,0 0.53231,-0.10574 0.68983,-0.28739 0.23357,-0.24129 0.27702,-0.50698 0.27702,-1.45046 0,-0.92993 -0.0434,-1.19562 -0.27702,-1.45047 m 0.54046,3.32659 c -0.31776,0.32805 -0.73057,0.50698 -1.23029,0.50698 -0.49701,0 -0.91253,-0.17893 -1.23029,-0.50698 -0.46713,-0.45548 -0.45627,-0.97602 -0.45627,-1.87612 0,-0.90011 -0.0109,-1.41794 0.45627,-1.87341 0.31776,-0.31721 0.73328,-0.49885 1.23029,-0.49885 0.49972,0 0.91253,0.18164 1.23029,0.49885 0.45627,0.45547 0.4454,0.9733 0.4454,1.87341 0,0.9001 0.0109,1.42064 -0.4454,1.87612"
         style="fill:#231f20;fill-opacity:1;fill-rule:nonzero;stroke:none"
         id="path62914"
         inkscape:connector-curvature="0" />
      <path
         d="m 319.01062,535.09729 0,-4.67131 2.99289,0 0,0.63441 -2.28133,0 0,1.36642 1.94185,0 0,0.62627 -1.94185,0 0,1.40709 2.28133,0 0,0.63712 -2.99289,0 z"
         style="fill:#231f20;fill-opacity:1;fill-rule:nonzero;stroke:none"
         id="path62916"
         inkscape:connector-curvature="0" />
      <path
         d="m 324.87691,535.09729 -1.01846,-1.79207 -1.00759,1.79207 -0.81747,0 1.44484,-2.39394 -1.34707,-2.27737 0.80661,0 0.92068,1.67278 0.9234,-1.67278 0.81748,0 -1.34707,2.27737 1.45299,2.39394 -0.82834,0 z"
         style="fill:#231f20;fill-opacity:1;fill-rule:nonzero;stroke:none"
         id="path62918"
         inkscape:connector-curvature="0" />
      <path
         d="m 327.57377,531.06039 0,4.0369 -0.71156,0 0,-4.0369 -1.29547,0 0,-0.63441 3.28892,0 0,0.63441 -1.28189,0 z"
         style="fill:#231f20;fill-opacity:1;fill-rule:nonzero;stroke:none"
         id="path62920"
         inkscape:connector-curvature="0" />
      <path
         d="m 331.03108,531.06039 -1.05105,0 0,1.46131 1.05105,0 c 0.47799,0 0.79575,-0.27383 0.79575,-0.7293 0,-0.45548 -0.31776,-0.73201 -0.79575,-0.73201 m 0.82834,4.0369 -0.98858,-1.971 -0.89081,0 0,1.971 -0.70884,0 0,-4.67131 1.81421,0 c 0.8908,0 1.45299,0.57205 1.45299,1.36642 0,0.66694 -0.40467,1.08988 -0.93426,1.23899 l 1.08092,2.0659 -0.82563,0 z"
         style="fill:#231f20;fill-opacity:1;fill-rule:nonzero;stroke:none"
         id="path62922"
         inkscape:connector-curvature="0" />
      <path
         d="m 333.18477,535.09729 0,-4.67131 2.99017,0 0,0.63441 -2.27861,0 0,1.36642 1.94185,0 0,0.62627 -1.94185,0 0,1.40709 2.27861,0 0,0.63712 -2.99017,0 z"
         style="fill:#231f20;fill-opacity:1;fill-rule:nonzero;stroke:none"
         id="path62924"
         inkscape:connector-curvature="0" />
      <path
         d="m 340.17543,535.09729 0,-3.12596 -1.08092,2.27737 -0.52145,0 -1.10264,-2.27737 0,3.12596 -0.71156,0 0,-4.67131 0.71156,0 1.35793,2.90093 1.34708,-2.90093 0.71156,0 0,4.67131 -0.71156,0 z"
         style="fill:#231f20;fill-opacity:1;fill-rule:nonzero;stroke:none"
         id="path62926"
         inkscape:connector-curvature="0" />
      <path
         d="m 343.92062,531.30439 c -0.16839,-0.16809 -0.42368,-0.28467 -0.7007,-0.28467 -0.2743,0 -0.52959,0.11658 -0.70069,0.28467 -0.23357,0.25485 -0.27431,0.52054 -0.27431,1.45047 0,0.94348 0.0407,1.20917 0.27431,1.45046 0.1711,0.18165 0.42639,0.28739 0.70069,0.28739 0.27702,0 0.53231,-0.10574 0.7007,-0.28739 0.2227,-0.24129 0.27702,-0.50698 0.27702,-1.45046 0,-0.92993 -0.0543,-1.19562 -0.27702,-1.45047 m 0.52959,3.32659 c -0.31775,0.32805 -0.73057,0.50698 -1.23029,0.50698 -0.497,0 -0.90167,-0.17893 -1.23029,-0.50698 -0.45627,-0.45548 -0.45627,-0.97602 -0.45627,-1.87612 0,-0.90011 0,-1.41794 0.45627,-1.87341 0.32862,-0.31721 0.73329,-0.49885 1.23029,-0.49885 0.49972,0 0.91254,0.18164 1.23029,0.49885 0.46713,0.45547 0.44541,0.9733 0.44541,1.87341 0,0.9001 0.0217,1.42064 -0.44541,1.87612"
         style="fill:#231f20;fill-opacity:1;fill-rule:nonzero;stroke:none"
         id="path62928"
         inkscape:connector-curvature="0" />
      <path
         d="m 347.98357,535.12712 c -0.7007,0 -1.20857,-0.15725 -1.65397,-0.61272 l 0.47799,-0.46632 c 0.33949,0.34974 0.70885,0.44463 1.1977,0.44463 0.60564,0 0.95599,-0.2657 0.95599,-0.71033 0,-0.20062 -0.0543,-0.36871 -0.18196,-0.48529 -0.11679,-0.11658 -0.23357,-0.15996 -0.50787,-0.20334 l -0.55404,-0.0732 c -0.38022,-0.0542 -0.68712,-0.17894 -0.89081,-0.37143 -0.2227,-0.22231 -0.33948,-0.51783 -0.33948,-0.9001 0,-0.80521 0.59478,-1.36642 1.56163,-1.36642 0.62465,0 1.05919,0.15996 1.45299,0.53138 l -0.4454,0.44463 c -0.28789,-0.27654 -0.62737,-0.36058 -1.01846,-0.36058 -0.56218,0 -0.86093,0.3172 -0.86093,0.7293 0,0.1708 0.0543,0.31992 0.18196,0.4365 0.11679,0.10573 0.3069,0.17893 0.51874,0.21147 l 0.54046,0.084 c 0.42639,0.0624 0.6681,0.16809 0.87179,0.34974 0.25258,0.22231 0.38022,0.55036 0.38022,0.95162 0,0.85943 -0.70884,1.36642 -1.68655,1.36642"
         style="fill:#231f20;fill-opacity:1;fill-rule:nonzero;stroke:none"
         id="path62930"
         inkscape:connector-curvature="0" />
      <path
         d="m 351.83468,535.12712 c -0.95328,0 -1.6757,-0.64526 -1.6757,-1.60772 l 0,-3.09342 0.71156,0 0,3.06089 c 0,0.62356 0.38022,1.00584 0.96414,1.00584 0.58391,0 0.96685,-0.38228 0.96685,-1.00584 l 0,-3.06089 0.70884,0 0,3.09342 c 0,0.96246 -0.71971,1.60772 -1.67569,1.60772"
         style="fill:#231f20;fill-opacity:1;fill-rule:nonzero;stroke:none"
         id="path62932"
         inkscape:connector-curvature="0" />
      <path
         d="m 354.27625,535.09729 0,-4.67131 0.70884,0 0,4.03419 2.24874,0 0,0.63712 -2.95758,0 z"
         style="fill:#231f20;fill-opacity:1;fill-rule:nonzero;stroke:none"
         id="path62934"
         inkscape:connector-curvature="0" />
    </g>
  </g>
</svg>
