<?xml version="1.0" encoding="UTF-8" standalone="no"?>
<!-- Created with Inkscape (http://www.inkscape.org/) -->

<svg
   xmlns:dc="http://purl.org/dc/elements/1.1/"
   xmlns:cc="http://creativecommons.org/ns#"
   xmlns:rdf="http://www.w3.org/1999/02/22-rdf-syntax-ns#"
   xmlns:svg="http://www.w3.org/2000/svg"
   xmlns="http://www.w3.org/2000/svg"
   xmlns:sodipodi="http://sodipodi.sourceforge.net/DTD/sodipodi-0.dtd"
   xmlns:inkscape="http://www.inkscape.org/namespaces/inkscape"
   width="180"
   height="68.374878"
   id="svg4948"
   version="1.1"
   inkscape:version="0.48.3.1 r9886"
   sodipodi:docname="Novo documento 8">
  <defs
     id="defs4950">
    <clipPath
       clipPathUnits="userSpaceOnUse"
       id="clipPath62978">
      <path
         inkscape:connector-curvature="0"
         d="m 247.383,96.207 11.824,0 0,-12.613 -11.824,0 0,12.613 z"
         id="path62980" />
    </clipPath>
    <clipPath
       clipPathUnits="userSpaceOnUse"
       id="clipPath62986">
      <path
         inkscape:connector-curvature="0"
         d="M 0,0 309,0 309,437 0,437 0,0 z"
         id="path62988" />
    </clipPath>
  </defs>
  <sodipodi:namedview
     id="base"
     pagecolor="#ffffff"
     bordercolor="#666666"
     borderopacity="1.0"
     inkscape:pageopacity="0.0"
     inkscape:pageshadow="2"
     inkscape:zoom="0.35"
     inkscape:cx="30.11128"
     inkscape:cy="11.438078"
     inkscape:document-units="px"
     inkscape:current-layer="layer1"
     showgrid="false"
     fit-margin-top="0"
     fit-margin-left="0"
     fit-margin-right="0"
     fit-margin-bottom="0"
     inkscape:window-width="1600"
     inkscape:window-height="876"
     inkscape:window-x="0"
     inkscape:window-y="24"
     inkscape:window-maximized="1" />
  <metadata
     id="metadata4953">
    <rdf:RDF>
      <cc:Work
         rdf:about="">
        <dc:format>image/svg+xml</dc:format>
        <dc:type
           rdf:resource="http://purl.org/dc/dcmitype/StillImage" />
        <dc:title></dc:title>
      </cc:Work>
    </rdf:RDF>
  </metadata>
  <g
     inkscape:label="Camada 1"
     inkscape:groupmode="layer"
     id="layer1"
     transform="translate(-319.88872,-475.42539)">
    <g
       id="g64238"
       transform="matrix(3.609312,0,0,-3.6030392,-499.49729,833.3513)">
      <g
         id="g62974">
        <g
           clip-path="url(#clipPath62978)"
           id="g62976">
          <g
             transform="translate(0,-0.460999)"
             id="g62982">
            <g
               id="g62984" />
            <g
               id="g62990">
              <g
                 id="g62992"
                 clip-path="url(#clipPath62986)">
                <g
                   id="g62994">
                  <path
                     inkscape:connector-curvature="0"
                     id="path62996"
                     style="fill:#fddd10;fill-opacity:1;fill-rule:nonzero;stroke:none"
                     d="m 247.383,84.055 0,12.613 11.824,0 0,-2.484 -8.668,0 0,-10.129 -3.156,0 z" />
                </g>
              </g>
            </g>
          </g>
        </g>
      </g>
      <path
         d="m 270.203,89.047 1.399,0 c 0.91,0 1.476,0.035 1.703,0.113 0.226,0.078 0.402,0.211 0.531,0.399 0.129,0.187 0.195,0.421 0.195,0.703 0,0.316 -0.086,0.57 -0.258,0.761 -0.168,0.196 -0.402,0.321 -0.711,0.371 -0.152,0.02 -0.613,0.032 -1.382,0.032 l -1.477,0 0,-2.379 m -7.75,2.379 0,-2.66 1.035,0 c 0.746,0 1.246,0.046 1.5,0.144 0.25,0.098 0.446,0.254 0.59,0.461 0.145,0.211 0.215,0.453 0.215,0.731 0,0.339 -0.102,0.621 -0.301,0.847 -0.199,0.219 -0.453,0.36 -0.762,0.414 -0.226,0.043 -0.679,0.063 -1.363,0.063 l -0.914,0 z m -1.894,-7.797 0,9.387 3.039,0 c 1.152,0 1.902,-0.051 2.254,-0.145 0.535,-0.141 0.988,-0.445 1.351,-0.918 0.363,-0.473 0.543,-1.082 0.543,-1.824 0,-0.578 -0.105,-1.063 -0.312,-1.453 -0.211,-0.395 -0.477,-0.703 -0.801,-0.926 -0.321,-0.227 -0.649,-0.371 -0.981,-0.445 -0.449,-0.09 -1.105,-0.137 -1.964,-0.137 l -1.235,0 0,-3.539 -1.894,0 z m -9.325,9.351 0,-9.386 2.969,0 0,6.906 5.004,0 0,2.48 -7.973,0 z m -14.523,6.36 0,-9.082 c 0,-2.68 -0.856,-4.438 -3.266,-4.438 -2.414,0 -3.269,1.758 -3.269,4.438 l 0,9.082 -3.156,0 0,-10.051 c 0,-4.215 2.39,-5.949 6.425,-5.949 4.032,0 6.422,1.734 6.422,5.949 l 0,7.574 3.645,0 0,-13.254 3.156,0 0,13.254 12.559,0 0,2.477 -22.516,0 z m 31.594,-15.711 0,9.387 3.988,0 c 1.004,0 1.73,-0.086 2.187,-0.254 0.454,-0.168 0.817,-0.469 1.09,-0.899 0.274,-0.433 0.41,-0.926 0.41,-1.48 0,-0.703 -0.207,-1.285 -0.621,-1.746 -0.414,-0.457 -1.031,-0.746 -1.855,-0.864 0.41,-0.242 0.75,-0.504 1.016,-0.789 0.265,-0.285 0.625,-0.793 1.074,-1.523 l 1.148,-1.832 -2.265,0 -1.372,2.043 c -0.484,0.73 -0.816,1.191 -0.996,1.379 -0.179,0.191 -0.371,0.32 -0.57,0.39 -0.203,0.071 -0.519,0.106 -0.957,0.106 l -0.379,0 0,-3.918 -1.898,0 z"
         style="fill:#231f20;fill-opacity:1;fill-rule:nonzero;stroke:none"
         id="path63000"
         inkscape:connector-curvature="0" />
      <path
         d="m 227.512,82.367 0,-1.289 c 0,-0.289 0.09,-0.379 0.187,-0.379 0.113,0 0.192,0.078 0.192,0.379 l 0,1.289 0.386,0 0,-1.223 c 0,-0.507 -0.191,-0.781 -0.574,-0.781 -0.414,0 -0.574,0.285 -0.574,0.781 l 0,1.223 0.383,0 z"
         style="fill:#231f20;fill-opacity:1;fill-rule:nonzero;stroke:none"
         id="path63002"
         inkscape:connector-curvature="0" />
      <path
         d="m 228.609,80.387 0,1.98 0.356,0 0.305,-0.777 c 0.058,-0.153 0.156,-0.406 0.21,-0.578 l 0.004,0 c -0.011,0.207 -0.039,0.55 -0.039,0.918 l 0,0.437 0.34,0 0,-1.98 -0.351,0 -0.305,0.75 c -0.063,0.168 -0.156,0.418 -0.199,0.597 l -0.004,0 c 0.008,-0.199 0.023,-0.504 0.023,-0.902 l 0,-0.445 -0.34,0 z"
         style="fill:#231f20;fill-opacity:1;fill-rule:nonzero;stroke:none"
         id="path63004"
         inkscape:connector-curvature="0" />
      <path
         d="m 230.129,82.367 0.383,0 0,-1.98 -0.383,0 0,1.98 z"
         style="fill:#231f20;fill-opacity:1;fill-rule:nonzero;stroke:none"
         id="path63006"
         inkscape:connector-curvature="0" />
      <path
         d="m 231.133,80.387 -0.445,1.98 0.425,0 0.145,-0.855 c 0.035,-0.211 0.074,-0.457 0.101,-0.688 l 0.004,0 c 0.028,0.235 0.059,0.473 0.094,0.695 l 0.137,0.848 0.422,0 -0.45,-1.98 -0.433,0 z"
         style="fill:#231f20;fill-opacity:1;fill-rule:nonzero;stroke:none"
         id="path63008"
         inkscape:connector-curvature="0" />
      <path
         d="m 233.023,81.254 -0.453,0 0,-0.535 0.512,0 0,-0.332 -0.894,0 0,1.98 0.859,0 0,-0.336 -0.477,0 0,-0.457 0.453,0 0,-0.32 z"
         style="fill:#231f20;fill-opacity:1;fill-rule:nonzero;stroke:none"
         id="path63010"
         inkscape:connector-curvature="0" />
      <path
         d="m 233.73,81.473 0.067,0 c 0.168,0 0.265,0.136 0.265,0.308 0,0.168 -0.07,0.289 -0.242,0.293 -0.031,0 -0.07,0 -0.09,-0.012 l 0,-0.589 z m -0.386,0.863 c 0.121,0.023 0.273,0.039 0.422,0.039 0.211,0 0.398,-0.031 0.527,-0.148 0.121,-0.106 0.156,-0.239 0.156,-0.411 0,-0.211 -0.101,-0.402 -0.304,-0.496 l 0,-0.008 c 0.132,-0.05 0.203,-0.179 0.238,-0.39 0.039,-0.219 0.094,-0.465 0.129,-0.535 l -0.403,0 c -0.023,0.054 -0.07,0.254 -0.097,0.472 -0.035,0.246 -0.098,0.317 -0.227,0.317 l -0.055,0 0,-0.789 -0.386,0 0,1.949 z"
         style="fill:#231f20;fill-opacity:1;fill-rule:nonzero;stroke:none"
         id="path63012"
         inkscape:connector-curvature="0" />
      <path
         d="m 234.684,80.777 c 0.078,-0.043 0.211,-0.074 0.324,-0.074 0.183,0 0.269,0.094 0.269,0.223 0,0.144 -0.086,0.215 -0.254,0.324 -0.269,0.164 -0.375,0.375 -0.375,0.551 0,0.316 0.211,0.582 0.629,0.582 0.129,0 0.25,-0.035 0.309,-0.071 l -0.059,-0.332 c -0.058,0.036 -0.144,0.071 -0.254,0.071 -0.164,0 -0.246,-0.102 -0.246,-0.207 0,-0.117 0.059,-0.18 0.274,-0.309 0.261,-0.16 0.359,-0.359 0.359,-0.566 0,-0.364 -0.265,-0.602 -0.656,-0.602 -0.156,0 -0.313,0.043 -0.379,0.078 l 0.059,0.332 z"
         style="fill:#231f20;fill-opacity:1;fill-rule:nonzero;stroke:none"
         id="path63014"
         inkscape:connector-curvature="0" />
      <path
         d="m 235.887,82.367 0.383,0 0,-1.98 -0.383,0 0,1.98 z"
         style="fill:#231f20;fill-opacity:1;fill-rule:nonzero;stroke:none"
         id="path63016"
         inkscape:connector-curvature="0" />
      <path
         d="m 237,80.691 c 0.016,-0.007 0.047,-0.007 0.066,-0.007 0.188,0 0.348,0.183 0.348,0.73 0,0.406 -0.105,0.652 -0.34,0.652 -0.023,0 -0.051,0 -0.074,-0.007 l 0,-1.368 z m -0.387,1.645 c 0.098,0.023 0.239,0.039 0.391,0.039 0.25,0 0.426,-0.059 0.551,-0.176 0.172,-0.152 0.257,-0.414 0.257,-0.801 0,-0.398 -0.101,-0.683 -0.277,-0.836 -0.133,-0.128 -0.328,-0.191 -0.605,-0.191 -0.118,0 -0.239,0.012 -0.317,0.02 l 0,1.945 z"
         style="fill:#231f20;fill-opacity:1;fill-rule:nonzero;stroke:none"
         id="path63018"
         inkscape:connector-curvature="0" />
      <path
         d="m 238.645,81.137 -0.063,0.414 c -0.02,0.121 -0.047,0.32 -0.066,0.449 l -0.008,0 c -0.02,-0.129 -0.051,-0.336 -0.07,-0.449 l -0.075,-0.414 0.282,0 z m -0.321,-0.301 -0.086,-0.449 -0.375,0 0.43,1.98 0.461,0 0.387,-1.98 -0.375,0 -0.086,0.449 -0.356,0 z"
         style="fill:#231f20;fill-opacity:1;fill-rule:nonzero;stroke:none"
         id="path63020"
         inkscape:connector-curvature="0" />
      <path
         d="m 239.742,80.691 c 0.02,-0.007 0.047,-0.007 0.07,-0.007 0.184,0 0.344,0.183 0.344,0.73 0,0.406 -0.105,0.652 -0.336,0.652 -0.027,0 -0.054,0 -0.078,-0.007 l 0,-1.368 z m -0.383,1.645 c 0.094,0.023 0.235,0.039 0.391,0.039 0.25,0 0.422,-0.059 0.547,-0.176 0.172,-0.152 0.258,-0.414 0.258,-0.801 0,-0.398 -0.102,-0.683 -0.274,-0.836 -0.133,-0.128 -0.328,-0.191 -0.605,-0.191 -0.121,0 -0.242,0.012 -0.317,0.02 l 0,1.945 z"
         style="fill:#231f20;fill-opacity:1;fill-rule:nonzero;stroke:none"
         id="path63022"
         inkscape:connector-curvature="0" />
      <path
         d="m 241.641,81.254 -0.453,0 0,-0.535 0.511,0 0,-0.332 -0.898,0 0,1.98 0.863,0 0,-0.336 -0.476,0 0,-0.457 0.453,0 0,-0.32 z"
         style="fill:#231f20;fill-opacity:1;fill-rule:nonzero;stroke:none"
         id="path63024"
         inkscape:connector-curvature="0" />
      <path
         d="m 242.609,82.012 -0.351,0 0,0.355 1.09,0 0,-0.355 -0.352,0 0,-1.625 -0.387,0 0,1.625 z"
         style="fill:#231f20;fill-opacity:1;fill-rule:nonzero;stroke:none"
         id="path63026"
         inkscape:connector-curvature="0" />
      <path
         d="m 244.387,81.254 -0.449,0 0,-0.535 0.511,0 0,-0.332 -0.898,0 0,1.98 0.863,0 0,-0.336 -0.476,0 0,-0.457 0.449,0 0,-0.32 z"
         style="fill:#231f20;fill-opacity:1;fill-rule:nonzero;stroke:none"
         id="path63028"
         inkscape:connector-curvature="0" />
      <path
         d="m 245.66,80.414 c -0.058,-0.027 -0.168,-0.047 -0.301,-0.047 -0.504,0 -0.746,0.418 -0.746,0.981 0,0.746 0.414,1.035 0.797,1.035 0.137,0 0.231,-0.024 0.27,-0.051 l -0.067,-0.324 c -0.043,0.019 -0.093,0.039 -0.175,0.039 -0.219,0 -0.418,-0.188 -0.418,-0.68 0,-0.473 0.179,-0.66 0.418,-0.66 0.062,0 0.136,0.016 0.183,0.031 l 0.039,-0.324 z"
         style="fill:#231f20;fill-opacity:1;fill-rule:nonzero;stroke:none"
         id="path63030"
         inkscape:connector-curvature="0" />
      <path
         d="m 245.871,80.387 0,1.98 0.352,0 0.304,-0.777 c 0.063,-0.153 0.157,-0.406 0.215,-0.578 l 0.004,0 c -0.012,0.207 -0.039,0.55 -0.039,0.918 l 0,0.437 0.34,0 0,-1.98 -0.352,0 -0.304,0.75 c -0.067,0.168 -0.157,0.418 -0.2,0.597 l -0.007,0 c 0.011,-0.199 0.027,-0.504 0.027,-0.902 l 0,-0.445 -0.34,0 z"
         style="fill:#231f20;fill-opacity:1;fill-rule:nonzero;stroke:none"
         id="path63032"
         inkscape:connector-curvature="0" />
      <path
         d="m 247.691,81.375 c 0,-0.449 0.086,-0.68 0.243,-0.68 0.16,0 0.222,0.297 0.222,0.699 0,0.348 -0.054,0.661 -0.226,0.661 -0.153,0 -0.239,-0.254 -0.239,-0.68 m 0.868,0.035 c 0,-0.746 -0.266,-1.047 -0.641,-1.047 -0.449,0 -0.629,0.473 -0.629,1.02 0,0.539 0.219,1.008 0.656,1.008 0.477,0 0.614,-0.528 0.614,-0.981"
         style="fill:#231f20;fill-opacity:1;fill-rule:nonzero;stroke:none"
         id="path63034"
         inkscape:connector-curvature="0" />
      <path
         d="m 248.801,82.367 0.387,0 0,-1.656 0.507,0 0,-0.324 -0.894,0 0,1.98 z"
         style="fill:#231f20;fill-opacity:1;fill-rule:nonzero;stroke:none"
         id="path63036"
         inkscape:connector-curvature="0" />
      <path
         d="m 250.848,82.805 -0.36,-0.332 -0.273,0 0.238,0.332 0.395,0 z m -0.703,-1.43 c 0,-0.449 0.085,-0.68 0.242,-0.68 0.16,0 0.222,0.297 0.222,0.699 0,0.344 -0.054,0.661 -0.226,0.661 -0.153,0 -0.238,-0.254 -0.238,-0.68 m 0.867,0.035 c 0,-0.746 -0.266,-1.047 -0.641,-1.047 -0.453,0 -0.629,0.477 -0.629,1.02 0,0.539 0.215,1.008 0.653,1.008 0.48,0 0.617,-0.528 0.617,-0.981"
         style="fill:#231f20;fill-opacity:1;fill-rule:nonzero;stroke:none"
         id="path63038"
         inkscape:connector-curvature="0" />
      <path
         d="m 252.355,80.437 c -0.085,-0.035 -0.269,-0.07 -0.414,-0.07 -0.226,0 -0.394,0.067 -0.527,0.195 -0.172,0.168 -0.262,0.461 -0.254,0.801 0.008,0.723 0.418,1.02 0.84,1.02 0.148,0 0.262,-0.028 0.324,-0.059 l -0.07,-0.332 c -0.055,0.031 -0.129,0.043 -0.227,0.043 -0.261,0 -0.468,-0.176 -0.468,-0.695 0,-0.477 0.183,-0.645 0.363,-0.645 0.035,0 0.062,0 0.078,0.008 l 0,0.481 -0.176,0 0,0.312 0.531,0 0,-1.059 z"
         style="fill:#231f20;fill-opacity:1;fill-rule:nonzero;stroke:none"
         id="path63040"
         inkscape:connector-curvature="0" />
      <path
         d="m 252.645,82.367 0.383,0 0,-1.98 -0.383,0 0,1.98 z"
         style="fill:#231f20;fill-opacity:1;fill-rule:nonzero;stroke:none"
         id="path63042"
         inkscape:connector-curvature="0" />
      <path
         d="m 254.32,80.414 c -0.054,-0.027 -0.164,-0.047 -0.297,-0.047 -0.507,0 -0.746,0.418 -0.746,0.981 0,0.746 0.414,1.035 0.797,1.035 0.137,0 0.231,-0.024 0.266,-0.051 l -0.063,-0.324 c -0.043,0.019 -0.093,0.039 -0.179,0.039 -0.219,0 -0.414,-0.188 -0.414,-0.68 0,-0.473 0.179,-0.66 0.414,-0.66 0.066,0 0.14,0.016 0.187,0.031 l 0.035,-0.324 z"
         style="fill:#231f20;fill-opacity:1;fill-rule:nonzero;stroke:none"
         id="path63044"
         inkscape:connector-curvature="0" />
      <path
         d="m 255.215,81.137 -0.063,0.414 c -0.023,0.121 -0.05,0.32 -0.066,0.449 l -0.008,0 c -0.023,-0.129 -0.051,-0.336 -0.07,-0.449 l -0.074,-0.414 0.281,0 z m -0.32,-0.301 -0.09,-0.449 -0.371,0 0.429,1.98 0.461,0 0.387,-1.98 -0.375,0 -0.086,0.449 -0.355,0 z"
         style="fill:#231f20;fill-opacity:1;fill-rule:nonzero;stroke:none"
         id="path63046"
         inkscape:connector-curvature="0" />
      <path
         d="m 256.395,82.367 0.863,0 0,-0.336 -0.477,0 0,-0.508 0.446,0 0,-0.32 -0.446,0 0,-0.816 -0.386,0 0,1.98 z"
         style="fill:#231f20;fill-opacity:1;fill-rule:nonzero;stroke:none"
         id="path63048"
         inkscape:connector-curvature="0" />
      <path
         d="m 258.387,81.254 -0.453,0 0,-0.535 0.511,0 0,-0.332 -0.898,0 0,1.98 0.863,0 0,-0.336 -0.476,0 0,-0.457 0.453,0 0,-0.32 z"
         style="fill:#231f20;fill-opacity:1;fill-rule:nonzero;stroke:none"
         id="path63050"
         inkscape:connector-curvature="0" />
      <path
         d="m 259.09,80.691 c 0.019,-0.007 0.047,-0.007 0.07,-0.007 0.184,0 0.344,0.183 0.344,0.73 0,0.406 -0.102,0.652 -0.336,0.652 -0.027,0 -0.055,0 -0.078,-0.007 l 0,-1.368 z m -0.383,1.645 c 0.098,0.023 0.238,0.039 0.391,0.039 0.25,0 0.422,-0.059 0.55,-0.176 0.168,-0.152 0.258,-0.414 0.258,-0.801 0,-0.398 -0.105,-0.683 -0.277,-0.836 -0.133,-0.128 -0.328,-0.191 -0.606,-0.191 -0.121,0 -0.242,0.012 -0.316,0.02 l 0,1.945 z"
         style="fill:#231f20;fill-opacity:1;fill-rule:nonzero;stroke:none"
         id="path63052"
         inkscape:connector-curvature="0" />
      <path
         d="m 260.988,81.254 -0.453,0 0,-0.535 0.512,0 0,-0.332 -0.895,0 0,1.98 0.86,0 0,-0.336 -0.477,0 0,-0.457 0.453,0 0,-0.32 z"
         style="fill:#231f20;fill-opacity:1;fill-rule:nonzero;stroke:none"
         id="path63054"
         inkscape:connector-curvature="0" />
      <path
         d="m 261.695,81.473 0.067,0 c 0.168,0 0.265,0.136 0.265,0.308 0,0.168 -0.07,0.289 -0.242,0.293 -0.031,0 -0.07,0 -0.09,-0.012 l 0,-0.589 z m -0.386,0.863 c 0.121,0.023 0.273,0.039 0.421,0.039 0.211,0 0.399,-0.031 0.528,-0.148 0.121,-0.106 0.156,-0.239 0.156,-0.411 0,-0.211 -0.102,-0.402 -0.305,-0.496 l 0,-0.008 c 0.133,-0.05 0.203,-0.179 0.239,-0.39 0.039,-0.219 0.093,-0.465 0.129,-0.535 l -0.403,0 c -0.027,0.054 -0.07,0.254 -0.097,0.472 -0.036,0.246 -0.098,0.317 -0.227,0.317 l -0.055,0 0,-0.789 -0.386,0 0,1.949 z"
         style="fill:#231f20;fill-opacity:1;fill-rule:nonzero;stroke:none"
         id="path63056"
         inkscape:connector-curvature="0" />
      <path
         d="m 263.324,81.137 -0.062,0.414 c -0.02,0.121 -0.047,0.32 -0.067,0.449 l -0.007,0 c -0.02,-0.129 -0.051,-0.336 -0.071,-0.449 l -0.074,-0.414 0.281,0 z m -0.32,-0.301 -0.086,-0.449 -0.375,0 0.43,1.98 0.461,0 0.386,-1.98 -0.375,0 -0.086,0.449 -0.355,0 z"
         style="fill:#231f20;fill-opacity:1;fill-rule:nonzero;stroke:none"
         id="path63058"
         inkscape:connector-curvature="0" />
      <path
         d="m 264.039,82.367 0.383,0 0,-1.656 0.508,0 0,-0.324 -0.891,0 0,1.98 z"
         style="fill:#231f20;fill-opacity:1;fill-rule:nonzero;stroke:none"
         id="path63060"
         inkscape:connector-curvature="0" />
      <path
         d="m 266.008,80.691 c 0.019,-0.007 0.047,-0.007 0.066,-0.007 0.188,0 0.348,0.183 0.348,0.73 0,0.406 -0.106,0.652 -0.34,0.652 -0.023,0 -0.051,0 -0.074,-0.007 l 0,-1.368 z m -0.387,1.645 c 0.098,0.023 0.238,0.039 0.391,0.039 0.25,0 0.426,-0.059 0.55,-0.176 0.172,-0.152 0.258,-0.414 0.258,-0.801 0,-0.398 -0.101,-0.683 -0.273,-0.836 -0.133,-0.128 -0.332,-0.191 -0.606,-0.191 -0.121,0 -0.242,0.012 -0.32,0.02 l 0,1.945 z"
         style="fill:#231f20;fill-opacity:1;fill-rule:nonzero;stroke:none"
         id="path63062"
         inkscape:connector-curvature="0" />
      <path
         d="m 267.367,81.375 c 0,-0.449 0.086,-0.68 0.242,-0.68 0.164,0 0.223,0.297 0.223,0.699 0,0.348 -0.051,0.661 -0.227,0.661 -0.152,0 -0.238,-0.254 -0.238,-0.68 m 0.867,0.035 c 0,-0.746 -0.261,-1.047 -0.64,-1.047 -0.449,0 -0.625,0.473 -0.625,1.02 0,0.539 0.215,1.008 0.652,1.008 0.481,0 0.613,-0.528 0.613,-0.981"
         style="fill:#231f20;fill-opacity:1;fill-rule:nonzero;stroke:none"
         id="path63064"
         inkscape:connector-curvature="0" />
      <path
         d="m 269.332,81.437 c 0.02,-0.007 0.039,-0.007 0.063,-0.007 0.195,0 0.281,0.14 0.281,0.324 0,0.176 -0.071,0.308 -0.25,0.308 -0.035,0 -0.071,-0.003 -0.094,-0.015 l 0,-0.61 z m -0.383,0.899 c 0.11,0.023 0.254,0.039 0.403,0.039 0.23,0 0.406,-0.031 0.539,-0.152 0.117,-0.102 0.168,-0.27 0.168,-0.434 0,-0.215 -0.063,-0.367 -0.168,-0.477 -0.121,-0.132 -0.325,-0.191 -0.481,-0.191 l -0.078,0 0,-0.734 -0.383,0 0,1.949 z"
         style="fill:#231f20;fill-opacity:1;fill-rule:nonzero;stroke:none"
         id="path63066"
         inkscape:connector-curvature="0" />
      <path
         d="m 270.805,81.137 -0.067,0.414 c -0.019,0.121 -0.047,0.32 -0.062,0.449 l -0.012,0 c -0.019,-0.129 -0.047,-0.336 -0.07,-0.449 l -0.074,-0.414 0.285,0 z m -0.321,-0.301 -0.089,-0.449 -0.375,0 0.429,1.98 0.465,0 0.383,-1.98 -0.371,0 -0.086,0.449 -0.356,0 z"
         style="fill:#231f20;fill-opacity:1;fill-rule:nonzero;stroke:none"
         id="path63068"
         inkscape:connector-curvature="0" />
      <path
         d="m 271.902,81.473 0.067,0 c 0.168,0 0.265,0.136 0.265,0.308 0,0.168 -0.07,0.289 -0.242,0.293 -0.031,0 -0.07,0 -0.09,-0.012 l 0,-0.589 z m -0.386,0.863 c 0.121,0.023 0.273,0.039 0.418,0.039 0.214,0 0.402,-0.031 0.531,-0.148 0.121,-0.106 0.156,-0.239 0.156,-0.411 0,-0.211 -0.105,-0.402 -0.305,-0.496 l 0,-0.008 c 0.133,-0.05 0.2,-0.179 0.239,-0.39 0.039,-0.219 0.093,-0.465 0.129,-0.535 l -0.403,0 c -0.027,0.054 -0.07,0.254 -0.097,0.472 -0.036,0.246 -0.098,0.317 -0.227,0.317 l -0.055,0 0,-0.789 -0.386,0 0,1.949 z"
         style="fill:#231f20;fill-opacity:1;fill-rule:nonzero;stroke:none"
         id="path63070"
         inkscape:connector-curvature="0" />
      <path
         d="m 273.531,81.137 -0.062,0.414 c -0.02,0.121 -0.047,0.32 -0.067,0.449 l -0.007,0 c -0.02,-0.129 -0.051,-0.336 -0.071,-0.449 l -0.074,-0.414 0.281,0 z m -0.32,-0.301 -0.086,-0.449 -0.375,0 0.43,1.98 0.461,0 0.386,-1.98 -0.375,0 -0.086,0.449 -0.355,0 z"
         style="fill:#231f20;fill-opacity:1;fill-rule:nonzero;stroke:none"
         id="path63072"
         inkscape:connector-curvature="0" />
      <path
         d="m 274.246,80.387 0,1.98 0.352,0 0.304,-0.777 c 0.059,-0.153 0.157,-0.406 0.211,-0.578 l 0.008,0 c -0.012,0.207 -0.039,0.55 -0.039,0.918 l 0,0.437 0.34,0 0,-1.98 -0.356,0 -0.3,0.75 c -0.067,0.168 -0.157,0.418 -0.204,0.597 l -0.003,0 c 0.007,-0.199 0.023,-0.504 0.023,-0.902 l 0,-0.445 -0.336,0 z"
         style="fill:#231f20;fill-opacity:1;fill-rule:nonzero;stroke:none"
         id="path63074"
         inkscape:connector-curvature="0" />
      <path
         d="m 276.395,81.137 -0.063,0.414 c -0.02,0.121 -0.047,0.32 -0.066,0.449 l -0.008,0 c -0.02,-0.129 -0.051,-0.336 -0.07,-0.449 l -0.075,-0.414 0.282,0 z m 0.335,1.668 -0.355,-0.332 -0.277,0 0.242,0.332 0.39,0 z m -0.652,-1.969 -0.09,-0.449 -0.375,0 0.43,1.98 0.461,0 0.387,-1.98 -0.375,0 -0.086,0.449 -0.352,0 z"
         style="fill:#231f20;fill-opacity:1;fill-rule:nonzero;stroke:none"
         id="path63076"
         inkscape:connector-curvature="0" />
    </g>
  </g>
</svg>
