<?xml version="1.0" encoding="UTF-8" standalone="no"?>
<!-- Created with Inkscape (http://www.inkscape.org/) -->

<svg
   xmlns:dc="http://purl.org/dc/elements/1.1/"
   xmlns:cc="http://creativecommons.org/ns#"
   xmlns:rdf="http://www.w3.org/1999/02/22-rdf-syntax-ns#"
   xmlns:svg="http://www.w3.org/2000/svg"
   xmlns="http://www.w3.org/2000/svg"
   xmlns:xlink="http://www.w3.org/1999/xlink"
   xmlns:sodipodi="http://sodipodi.sourceforge.net/DTD/sodipodi-0.dtd"
   xmlns:inkscape="http://www.inkscape.org/namespaces/inkscape"
   width="180"
   height="32.158115"
   id="svg5111"
   version="1.1"
   inkscape:version="0.48.3.1 r9886"
   sodipodi:docname="Novo documento 11">
  <defs
     id="defs5113">
    <linearGradient
       inkscape:collect="always"
       xlink:href="#linearGradient63329"
       id="linearGradient5892"
       gradientUnits="userSpaceOnUse"
       gradientTransform="matrix(5.230312,0,0,-5.230312,80.68491,48.105538)"
       spreadMethod="pad"
       x1="0"
       y1="0"
       x2="1"
       y2="0" />
    <linearGradient
       x1="0"
       y1="0"
       x2="1"
       y2="0"
       gradientUnits="userSpaceOnUse"
       gradientTransform="matrix(5.230312,0,0,-5.230312,80.68491,48.105538)"
       spreadMethod="pad"
       id="linearGradient63329">
      <stop
         style="stop-opacity:1;stop-color:#a2a09d"
         offset="0"
         id="stop63331" />
      <stop
         style="stop-opacity:1;stop-color:#ffffff"
         offset="1"
         id="stop63333" />
    </linearGradient>
    <radialGradient
       inkscape:collect="always"
       xlink:href="#radialGradient63339"
       id="radialGradient5894"
       gradientUnits="userSpaceOnUse"
       gradientTransform="matrix(8.255204,0,0,-6.822745,80.43336,48.076993)"
       spreadMethod="pad"
       cx="0"
       cy="0"
       fx="0"
       fy="0"
       r="1" />
    <radialGradient
       fx="0"
       fy="0"
       cx="0"
       cy="0"
       r="1"
       gradientUnits="userSpaceOnUse"
       gradientTransform="matrix(8.255204,0,0,-6.822745,80.43336,48.076993)"
       spreadMethod="pad"
       id="radialGradient63339">
      <stop
         style="stop-opacity:1;stop-color:#b7e8f6"
         offset="0"
         id="stop63341" />
      <stop
         style="stop-opacity:1;stop-color:#56c8e0"
         offset="0.131909"
         id="stop63343" />
      <stop
         style="stop-opacity:1;stop-color:#1bb2dd"
         offset="0.269815"
         id="stop63345" />
      <stop
         style="stop-opacity:1;stop-color:#1699da"
         offset="0.716039"
         id="stop63347" />
      <stop
         style="stop-opacity:1;stop-color:#1a7ea1"
         offset="1"
         id="stop63349" />
    </radialGradient>
  </defs>
  <sodipodi:namedview
     id="base"
     pagecolor="#ffffff"
     bordercolor="#666666"
     borderopacity="1.0"
     inkscape:pageopacity="0.0"
     inkscape:pageshadow="2"
     inkscape:zoom="0.35"
     inkscape:cx="29.413303"
     inkscape:cy="5.2548704"
     inkscape:document-units="px"
     inkscape:current-layer="layer1"
     showgrid="false"
     fit-margin-top="0"
     fit-margin-left="0"
     fit-margin-right="0"
     fit-margin-bottom="0"
     inkscape:window-width="1600"
     inkscape:window-height="876"
     inkscape:window-x="0"
     inkscape:window-y="24"
     inkscape:window-maximized="1" />
  <metadata
     id="metadata5116">
    <rdf:RDF>
      <cc:Work
         rdf:about="">
        <dc:format>image/svg+xml</dc:format>
        <dc:type
           rdf:resource="http://purl.org/dc/dcmitype/StillImage" />
        <dc:title></dc:title>
      </cc:Work>
    </rdf:RDF>
  </metadata>
  <g
     inkscape:label="Camada 1"
     inkscape:groupmode="layer"
     id="layer1"
     transform="translate(-320.5867,-505.45894)">
    <g
       id="g64430"
       transform="matrix(3.6949605,0,0,-3.6885388,32.047232,689.45432)">
      <g
         id="g63327">
        <path
           d="m 82.457,49.227 c -0.242,-0.012 -0.492,0 -0.734,-0.04 -0.5,-0.097 -0.84,-0.554 -0.977,-1.023 -0.012,-0.109 -0.137,-0.277 0.012,-0.328 0.433,-0.281 0.871,-0.567 1.304,-0.852 0.696,0.5 1.54,0.719 2.368,0.871 0.492,0.086 0.988,0.141 1.484,0.164 -0.551,0.563 -1.309,0.887 -2.066,1.063 -0.438,0.098 -0.887,0.145 -1.332,0.145 l -0.059,0"
           style="fill:url(#linearGradient5892);fill-opacity:1;fill-rule:nonzero;stroke:none"
           id="path63335"
           inkscape:connector-curvature="0" />
      </g>
      <g
         id="g63337">
        <path
           d="m 82.297,49.879 c -0.832,-0.008 -1.649,-0.235 -2.344,-0.66 -0.703,-0.434 -1.285,-1.078 -1.601,-1.86 -0.137,-0.355 -0.258,-0.734 -0.262,-1.121 0.004,-0.535 0.39,-1.008 0.898,-1.164 0.367,-0.125 0.742,-0.129 1.11,-0.222 0.664,-0.137 1.336,-0.317 1.925,-0.645 0.344,-0.195 0.676,-0.453 0.817,-0.848 0.187,-0.535 -0.25,-1.129 -0.781,-1.23 -0.778,-0.16 -1.539,0.183 -2.196,0.562 -0.578,0.356 -1.097,0.782 -1.574,1.258 0.258,-0.664 0.672,-1.246 1.215,-1.722 0.836,-0.731 1.988,-1.137 3.125,-1.051 1.59,0.078 3.086,1.133 3.711,2.601 0.234,0.496 0.308,1.121 0.055,1.621 -0.129,0.25 -0.375,0.438 -0.641,0.524 -0.371,0.129 -0.789,0.074 -1.188,0.144 -0.699,0.094 -1.418,0.243 -2.015,0.567 -0.27,0.144 -0.535,0.351 -0.699,0.605 -0.125,0.196 -0.207,0.438 -0.172,0.696 0.031,0.273 0.121,0.535 0.336,0.726 0.453,0.383 1.109,0.363 1.668,0.277 0.796,-0.14 1.57,-0.453 2.238,-0.921 -0.668,0.968 -1.731,1.632 -2.875,1.812 -0.211,0.031 -0.43,0.055 -0.649,0.055 -0.035,0 -0.066,0 -0.101,-0.004"
           style="fill:url(#radialGradient5894);fill-opacity:1;fill-rule:nonzero;stroke:none"
           id="path63351"
           inkscape:connector-curvature="0" />
      </g>
      <path
         d="M 116.039,45.742 C 116.02,45.742 116,45.723 116,45.703 l 0,-0.375 c 0,-0.019 0.02,-0.039 0.039,-0.039 l 0.766,0 c 0.023,0 0.043,0.02 0.043,0.039 l 0,0.375 c 0,0.02 -0.02,0.039 -0.043,0.039 l -0.766,0 z m 7.406,1.184 0.567,0 c 0.468,0 0.597,-0.024 0.722,-0.153 0.2,-0.195 0.204,-0.472 0,-0.656 -0.117,-0.109 -0.304,-0.152 -0.722,-0.172 l -0.567,-0.031 0,1.012 z m -4.59,0 0.454,0 c 0.398,0 0.476,-0.024 0.617,-0.199 0.203,-0.262 0.191,-0.434 -0.024,-0.68 -0.132,-0.16 -0.257,-0.207 -0.605,-0.242 l -0.442,-0.051 0,1.172 z m 3.055,0.992 0,-4.977 1.535,0 0,2.094 0.243,-0.051 c 0.304,-0.062 0.39,-0.175 0.949,-1.215 l 0.441,-0.828 1.727,0 -0.422,0.828 c -0.477,0.922 -0.598,1.09 -0.91,1.254 l -0.223,0.121 0.355,0.172 c 0.418,0.207 0.633,0.446 0.747,0.871 0.171,0.653 -0.098,1.313 -0.645,1.579 -0.305,0.148 -0.465,0.152 -2.059,0.152 l -1.738,0 z m -4.621,0.031 -0.008,-2.5 -0.019,-2.508 1.593,0 0,0.918 c 0,0.508 0.008,0.918 0.02,0.922 0.012,0.004 0.328,0.031 0.707,0.051 0.918,0.051 1.211,0.133 1.523,0.445 0.547,0.551 0.575,1.641 0.047,2.215 -0.343,0.383 -0.527,0.418 -2.257,0.438 l -1.606,0.019 z m -6.031,0.082 0,-3.058 c 0,-1.379 0.722,-2.032 2.199,-2.032 1.477,0 2.199,0.653 2.199,2.032 l 0,3.058 -1.484,0 0,-2.715 c 0,-0.507 0,-1.14 -0.707,-1.14 -0.723,0 -0.727,0.633 -0.727,1.14 l 0,2.715 -1.48,0 z m -8.789,0 0,-4.98 4.078,0 0,1.273 -2.586,0 0,0.621 2.281,0 0,1.184 -2.281,0 0,0.625 2.504,0 0,1.277 -3.996,0 z m -9.817,0 0,-3.058 c 0,-1.379 0.735,-2.032 2.207,-2.032 1.477,0 2.2,0.653 2.2,2.032 l 0,3.058 -1.493,0 0,-2.715 c 0,-0.507 0,-1.14 -0.707,-1.14 -0.722,0 -0.714,0.633 -0.714,1.14 l 0,2.715 -1.493,0 z m 16.172,0.11 c -0.992,0 -1.945,-0.489 -1.945,-1.641 0,-1 0.879,-1.211 1.644,-1.434 0.832,-0.246 1.039,-0.32 1.039,-0.578 0,-0.371 -0.371,-0.457 -0.617,-0.457 -0.277,0 -0.605,0.067 -0.715,0.367 -0.035,0.09 -0.05,0.207 -0.05,0.332 l -1.492,0 c 0.011,-1.586 1.578,-1.789 2.128,-1.789 1.075,0 2.231,0.414 2.231,1.707 0,0.914 -0.672,1.243 -1.356,1.438 -0.683,0.195 -1.375,0.262 -1.402,0.617 0,0.281 0.332,0.344 0.535,0.344 0.149,0 0.313,-0.039 0.434,-0.129 0.125,-0.086 0.211,-0.207 0.183,-0.395 l 1.403,0 c -0.043,1.211 -0.969,1.618 -2.02,1.618 m -8.949,0 c -1.488,0 -2.441,-1.032 -2.441,-2.602 0,-1.469 0.878,-2.598 2.441,-2.598 1.414,0 2.211,1.059 2.211,2.063 l -1.465,0 c -0.086,-0.465 -0.285,-0.828 -0.785,-0.828 -0.699,0 -0.918,0.695 -0.918,1.363 0,0.668 0.219,1.367 0.918,1.367 0.617,0 0.75,-0.547 0.777,-0.73 l 1.453,0 c -0.128,1.25 -0.863,1.957 -2.191,1.965 m -9.645,0 c -0.996,0 -1.949,-0.489 -1.949,-1.641 0,-1 0.871,-1.211 1.637,-1.434 0.832,-0.246 1.039,-0.32 1.039,-0.578 0,-0.371 -0.371,-0.457 -0.617,-0.457 -0.278,0 -0.598,0.067 -0.707,0.367 -0.031,0.09 -0.047,0.207 -0.047,0.332 l -1.496,0 c 0.015,-1.586 1.582,-1.789 2.129,-1.789 1.078,0 2.23,0.414 2.23,1.707 0,0.914 -0.679,1.243 -1.363,1.438 -0.684,0.195 -1.375,0.262 -1.402,0.617 0,0.281 0.332,0.344 0.535,0.344 0.148,0 0.324,-0.039 0.445,-0.129 0.121,-0.086 0.199,-0.207 0.172,-0.395 l 1.414,0 c -0.043,1.211 -0.973,1.618 -2.02,1.618"
         style="fill:#1f1719;fill-opacity:1;fill-rule:nonzero;stroke:none"
         id="path63353"
         inkscape:connector-curvature="0" />
    </g>
  </g>
</svg>
